<svg width="178" height="135" viewBox="0 0 178 135" fill="none" xmlns="http://www.w3.org/2000/svg">
<path d="M2.33789 11H1.20312V3.50781H2.33789V11ZM1.10742 1.47754C1.10742 1.21777 1.17122 1.02865 1.29883 0.910156C1.42643 0.787109 1.58594 0.725586 1.77734 0.725586C1.95964 0.725586 2.11686 0.787109 2.24902 0.910156C2.38118 1.0332 2.44727 1.22233 2.44727 1.47754C2.44727 1.73275 2.38118 1.92415 2.24902 2.05176C2.11686 2.1748 1.95964 2.23633 1.77734 2.23633C1.58594 2.23633 1.42643 2.1748 1.29883 2.05176C1.17122 1.92415 1.10742 1.73275 1.10742 1.47754ZM9.87109 11V6.15332C9.87109 5.54264 9.7321 5.08691 9.4541 4.78613C9.17611 4.48535 8.74089 4.33496 8.14844 4.33496C7.36458 4.33496 6.79036 4.54688 6.42578 4.9707C6.0612 5.39453 5.87891 6.09408 5.87891 7.06934V11H4.74414V3.50781H5.66699L5.85156 4.5332H5.90625C6.13867 4.16406 6.46452 3.87923 6.88379 3.67871C7.30306 3.47363 7.77018 3.37109 8.28516 3.37109C9.1875 3.37109 9.86654 3.58984 10.3223 4.02734C10.778 4.46029 11.0059 5.15527 11.0059 6.1123V11H9.87109ZM16.7207 4.38965H14.8135V11H13.6787V4.38965H12.3389V3.87695L13.6787 3.4668V3.0498C13.6787 1.20866 14.4831 0.288086 16.0918 0.288086C16.4883 0.288086 16.9531 0.367839 17.4863 0.527344L17.1924 1.43652C16.7549 1.29525 16.3812 1.22461 16.0713 1.22461C15.6429 1.22461 15.3262 1.36816 15.1211 1.65527C14.916 1.93783 14.8135 2.39355 14.8135 3.02246V3.50781H16.7207V4.38965ZM24.5547 7.24707C24.5547 8.46842 24.2471 9.42318 23.6318 10.1113C23.0166 10.7949 22.1667 11.1367 21.082 11.1367C20.4121 11.1367 19.8174 10.9795 19.2979 10.665C18.7783 10.3506 18.3773 9.89941 18.0947 9.31152C17.8122 8.72363 17.6709 8.03548 17.6709 7.24707C17.6709 6.02572 17.9762 5.07552 18.5869 4.39648C19.1976 3.71289 20.0452 3.37109 21.1299 3.37109C22.1781 3.37109 23.0098 3.71973 23.625 4.41699C24.2448 5.11426 24.5547 6.05762 24.5547 7.24707ZM18.8467 7.24707C18.8467 8.2041 19.0381 8.93327 19.4209 9.43457C19.8037 9.93587 20.3665 10.1865 21.1094 10.1865C21.8522 10.1865 22.415 9.93815 22.7979 9.44141C23.1852 8.9401 23.3789 8.20866 23.3789 7.24707C23.3789 6.2946 23.1852 5.57227 22.7979 5.08008C22.415 4.58333 21.8477 4.33496 21.0957 4.33496C20.3529 4.33496 19.7923 4.57878 19.4141 5.06641C19.0358 5.55404 18.8467 6.28092 18.8467 7.24707ZM37.1055 6.0166C37.1055 6.66374 37.0052 7.25618 36.8047 7.79395C36.6042 8.33171 36.3216 8.7487 35.957 9.04492C35.5924 9.34115 35.1732 9.48926 34.6992 9.48926C34.3073 9.48926 33.9769 9.37077 33.708 9.13379C33.4391 8.89681 33.2796 8.59375 33.2295 8.22461H33.1748C32.9925 8.62109 32.7305 8.93099 32.3887 9.1543C32.0514 9.3776 31.6504 9.48926 31.1855 9.48926C30.502 9.48926 29.9665 9.25684 29.5791 8.79199C29.1963 8.32259 29.0049 7.68685 29.0049 6.88477C29.0049 5.95508 29.2738 5.20085 29.8115 4.62207C30.3493 4.03874 31.0557 3.74707 31.9307 3.74707C32.2406 3.74707 32.5915 3.77669 32.9834 3.83594C33.3753 3.89062 33.7285 3.9681 34.043 4.06836L33.8721 7.28125V7.43164C33.8721 8.24284 34.1751 8.64844 34.7812 8.64844C35.196 8.64844 35.5332 8.40462 35.793 7.91699C36.0527 7.4248 36.1826 6.78678 36.1826 6.00293C36.1826 5.17806 36.014 4.45573 35.6768 3.83594C35.3395 3.21615 34.8587 2.73991 34.2344 2.40723C33.6146 2.06999 32.9014 1.90137 32.0947 1.90137C31.0785 1.90137 30.1943 2.11328 29.4424 2.53711C28.6904 2.95638 28.1162 3.55794 27.7197 4.3418C27.3232 5.12109 27.125 6.02344 27.125 7.04883C27.125 8.4388 27.4919 9.50749 28.2256 10.2549C28.9593 11.0023 30.0166 11.376 31.3975 11.376C32.3545 11.376 33.348 11.18 34.3779 10.7881V11.6973C33.5029 12.0801 32.5094 12.2715 31.3975 12.2715C29.7432 12.2715 28.458 11.818 27.542 10.9111C26.6305 9.99967 26.1748 8.72819 26.1748 7.09668C26.1748 5.91178 26.4186 4.85677 26.9062 3.93164C27.3939 3.00651 28.0889 2.29102 28.9912 1.78516C29.8936 1.27474 30.9281 1.01953 32.0947 1.01953C33.0745 1.01953 33.945 1.22689 34.7061 1.6416C35.4717 2.05176 36.0618 2.63737 36.4766 3.39844C36.8958 4.15495 37.1055 5.02767 37.1055 6.0166ZM30.0371 6.91211C30.0371 8.06966 30.4814 8.64844 31.3701 8.64844C32.3135 8.64844 32.8262 7.93522 32.9082 6.50879L33.0039 4.72461C32.6758 4.63346 32.318 4.58789 31.9307 4.58789C31.3382 4.58789 30.8734 4.79297 30.5361 5.20312C30.2035 5.61328 30.0371 6.18294 30.0371 6.91211ZM48.6924 11V6.12598C48.6924 5.52897 48.5648 5.08236 48.3096 4.78613C48.0544 4.48535 47.6579 4.33496 47.1201 4.33496C46.4137 4.33496 45.8919 4.53776 45.5547 4.94336C45.2174 5.34896 45.0488 5.97331 45.0488 6.81641V11H43.9141V6.12598C43.9141 5.52897 43.7865 5.08236 43.5312 4.78613C43.276 4.48535 42.8773 4.33496 42.335 4.33496C41.624 4.33496 41.1022 4.54915 40.7695 4.97754C40.4414 5.40137 40.2773 6.09863 40.2773 7.06934V11H39.1426V3.50781H40.0654L40.25 4.5332H40.3047C40.5189 4.16862 40.8197 3.88379 41.207 3.67871C41.599 3.47363 42.0365 3.37109 42.5195 3.37109C43.6908 3.37109 44.4564 3.79492 44.8164 4.64258H44.8711C45.0944 4.25065 45.418 3.94076 45.8418 3.71289C46.2656 3.48503 46.7487 3.37109 47.291 3.37109C48.1387 3.37109 48.7721 3.58984 49.1914 4.02734C49.6152 4.46029 49.8271 5.15527 49.8271 6.1123V11H48.6924ZM53.3066 11H52.1719V3.50781H53.3066V11ZM52.0762 1.47754C52.0762 1.21777 52.14 1.02865 52.2676 0.910156C52.3952 0.787109 52.5547 0.725586 52.7461 0.725586C52.9284 0.725586 53.0856 0.787109 53.2178 0.910156C53.3499 1.0332 53.416 1.22233 53.416 1.47754C53.416 1.73275 53.3499 1.92415 53.2178 2.05176C53.0856 2.1748 52.9284 2.23633 52.7461 2.23633C52.5547 2.23633 52.3952 2.1748 52.2676 2.05176C52.14 1.92415 52.0762 1.73275 52.0762 1.47754ZM65.2627 11V6.12598C65.2627 5.52897 65.1351 5.08236 64.8799 4.78613C64.6247 4.48535 64.2282 4.33496 63.6904 4.33496C62.984 4.33496 62.4622 4.53776 62.125 4.94336C61.7878 5.34896 61.6191 5.97331 61.6191 6.81641V11H60.4844V6.12598C60.4844 5.52897 60.3568 5.08236 60.1016 4.78613C59.8464 4.48535 59.4476 4.33496 58.9053 4.33496C58.1943 4.33496 57.6725 4.54915 57.3398 4.97754C57.0117 5.40137 56.8477 6.09863 56.8477 7.06934V11H55.7129V3.50781H56.6357L56.8203 4.5332H56.875C57.0892 4.16862 57.39 3.88379 57.7773 3.67871C58.1693 3.47363 58.6068 3.37109 59.0898 3.37109C60.2611 3.37109 61.0267 3.79492 61.3867 4.64258H61.4414C61.6647 4.25065 61.9883 3.94076 62.4121 3.71289C62.8359 3.48503 63.319 3.37109 63.8613 3.37109C64.709 3.37109 65.3424 3.58984 65.7617 4.02734C66.1855 4.46029 66.3975 5.15527 66.3975 6.1123V11H65.2627ZM69.877 11H68.7422V3.50781H69.877V11ZM68.6465 1.47754C68.6465 1.21777 68.7103 1.02865 68.8379 0.910156C68.9655 0.787109 69.125 0.725586 69.3164 0.725586C69.4987 0.725586 69.6559 0.787109 69.7881 0.910156C69.9202 1.0332 69.9863 1.22233 69.9863 1.47754C69.9863 1.73275 69.9202 1.92415 69.7881 2.05176C69.6559 2.1748 69.4987 2.23633 69.3164 2.23633C69.125 2.23633 68.9655 2.1748 68.8379 2.05176C68.7103 1.92415 68.6465 1.73275 68.6465 1.47754ZM81.833 11V6.12598C81.833 5.52897 81.7054 5.08236 81.4502 4.78613C81.195 4.48535 80.7985 4.33496 80.2607 4.33496C79.5544 4.33496 79.0326 4.53776 78.6953 4.94336C78.3581 5.34896 78.1895 5.97331 78.1895 6.81641V11H77.0547V6.12598C77.0547 5.52897 76.9271 5.08236 76.6719 4.78613C76.4167 4.48535 76.0179 4.33496 75.4756 4.33496C74.7646 4.33496 74.2428 4.54915 73.9102 4.97754C73.582 5.40137 73.418 6.09863 73.418 7.06934V11H72.2832V3.50781H73.2061L73.3906 4.5332H73.4453C73.6595 4.16862 73.9603 3.88379 74.3477 3.67871C74.7396 3.47363 75.1771 3.37109 75.6602 3.37109C76.8314 3.37109 77.597 3.79492 77.957 4.64258H78.0117C78.235 4.25065 78.5586 3.94076 78.9824 3.71289C79.4062 3.48503 79.8893 3.37109 80.4316 3.37109C81.2793 3.37109 81.9128 3.58984 82.332 4.02734C82.7559 4.46029 82.9678 5.15527 82.9678 6.1123V11H81.833ZM86.4473 11H85.3125V3.50781H86.4473V11ZM85.2168 1.47754C85.2168 1.21777 85.2806 1.02865 85.4082 0.910156C85.5358 0.787109 85.6953 0.725586 85.8867 0.725586C86.069 0.725586 86.2262 0.787109 86.3584 0.910156C86.4906 1.0332 86.5566 1.22233 86.5566 1.47754C86.5566 1.73275 86.4906 1.92415 86.3584 2.05176C86.2262 2.1748 86.069 2.23633 85.8867 2.23633C85.6953 2.23633 85.5358 2.1748 85.4082 2.05176C85.2806 1.92415 85.2168 1.73275 85.2168 1.47754ZM93.6865 8.95605C93.6865 9.65332 93.4268 10.1911 92.9072 10.5693C92.3877 10.9476 91.6585 11.1367 90.7197 11.1367C89.7262 11.1367 88.9515 10.9795 88.3955 10.665V9.6123C88.7555 9.7946 89.1406 9.93815 89.5508 10.043C89.9655 10.1478 90.3643 10.2002 90.7471 10.2002C91.3395 10.2002 91.7952 10.1068 92.1143 9.91992C92.4333 9.72852 92.5928 9.43913 92.5928 9.05176C92.5928 8.76009 92.4652 8.51172 92.21 8.30664C91.9593 8.09701 91.4671 7.85091 90.7334 7.56836C90.0361 7.30859 89.5394 7.08301 89.2432 6.8916C88.9515 6.69564 88.7327 6.47461 88.5869 6.22852C88.4456 5.98242 88.375 5.68848 88.375 5.34668C88.375 4.736 88.6234 4.25521 89.1201 3.9043C89.6169 3.54883 90.2982 3.37109 91.1641 3.37109C91.9707 3.37109 92.7591 3.53516 93.5293 3.86328L93.126 4.78613C92.374 4.47624 91.6927 4.32129 91.082 4.32129C90.5443 4.32129 90.1387 4.4056 89.8652 4.57422C89.5918 4.74284 89.4551 4.97526 89.4551 5.27148C89.4551 5.47201 89.5052 5.6429 89.6055 5.78418C89.7103 5.92546 89.8766 6.0599 90.1045 6.1875C90.3324 6.3151 90.7699 6.49967 91.417 6.74121C92.3057 7.06478 92.9049 7.39062 93.2148 7.71875C93.5293 8.04688 93.6865 8.45931 93.6865 8.95605ZM100.666 11V6.15332C100.666 5.54264 100.527 5.08691 100.249 4.78613C99.971 4.48535 99.5358 4.33496 98.9434 4.33496C98.1549 4.33496 97.5785 4.54915 97.2139 4.97754C96.8538 5.40592 96.6738 6.10775 96.6738 7.08301V11H95.5391V0.363281H96.6738V3.58301C96.6738 3.97038 96.6556 4.29167 96.6191 4.54688H96.6875C96.9108 4.18685 97.2275 3.9043 97.6377 3.69922C98.0524 3.48958 98.5241 3.38477 99.0527 3.38477C99.9688 3.38477 100.655 3.60352 101.11 4.04102C101.571 4.47396 101.801 5.16439 101.801 6.1123V11H100.666ZM105.26 7.16504C105.456 6.88704 105.754 6.52246 106.155 6.07129L108.575 3.50781H109.922L106.887 6.7002L110.134 11H108.76L106.114 7.45898L105.26 8.19727V11H104.139V0.363281H105.26V6.00293C105.26 6.25358 105.242 6.64095 105.205 7.16504H105.26ZM116.102 11L115.876 9.93359H115.821C115.448 10.403 115.074 10.722 114.7 10.8906C114.331 11.0547 113.868 11.1367 113.312 11.1367C112.57 11.1367 111.986 10.9453 111.562 10.5625C111.143 10.1797 110.934 9.63509 110.934 8.92871C110.934 7.41569 112.144 6.62272 114.563 6.5498L115.835 6.50879V6.04395C115.835 5.45605 115.707 5.02311 115.452 4.74512C115.201 4.46257 114.798 4.32129 114.242 4.32129C113.618 4.32129 112.911 4.5127 112.123 4.89551L111.774 4.02734C112.144 3.82682 112.547 3.6696 112.984 3.55566C113.426 3.44173 113.868 3.38477 114.311 3.38477C115.204 3.38477 115.865 3.58301 116.293 3.97949C116.726 4.37598 116.942 5.01172 116.942 5.88672V11H116.102ZM113.538 10.2002C114.244 10.2002 114.798 10.0065 115.199 9.61914C115.605 9.23177 115.808 8.68945 115.808 7.99219V7.31543L114.673 7.36328C113.771 7.39518 113.119 7.53646 112.718 7.78711C112.321 8.0332 112.123 8.41829 112.123 8.94238C112.123 9.35254 112.246 9.66471 112.492 9.87891C112.743 10.0931 113.091 10.2002 113.538 10.2002ZM124.12 8.95605C124.12 9.65332 123.86 10.1911 123.341 10.5693C122.821 10.9476 122.092 11.1367 121.153 11.1367C120.16 11.1367 119.385 10.9795 118.829 10.665V9.6123C119.189 9.7946 119.574 9.93815 119.984 10.043C120.399 10.1478 120.798 10.2002 121.181 10.2002C121.773 10.2002 122.229 10.1068 122.548 9.91992C122.867 9.72852 123.026 9.43913 123.026 9.05176C123.026 8.76009 122.899 8.51172 122.644 8.30664C122.393 8.09701 121.901 7.85091 121.167 7.56836C120.47 7.30859 119.973 7.08301 119.677 6.8916C119.385 6.69564 119.166 6.47461 119.021 6.22852C118.879 5.98242 118.809 5.68848 118.809 5.34668C118.809 4.736 119.057 4.25521 119.554 3.9043C120.05 3.54883 120.732 3.37109 121.598 3.37109C122.404 3.37109 123.193 3.53516 123.963 3.86328L123.56 4.78613C122.808 4.47624 122.126 4.32129 121.516 4.32129C120.978 4.32129 120.572 4.4056 120.299 4.57422C120.025 4.74284 119.889 4.97526 119.889 5.27148C119.889 5.47201 119.939 5.6429 120.039 5.78418C120.144 5.92546 120.31 6.0599 120.538 6.1875C120.766 6.3151 121.203 6.49967 121.851 6.74121C122.739 7.06478 123.339 7.39062 123.648 7.71875C123.963 8.04688 124.12 8.45931 124.12 8.95605ZM131.1 11V6.15332C131.1 5.54264 130.961 5.08691 130.683 4.78613C130.405 4.48535 129.969 4.33496 129.377 4.33496C128.589 4.33496 128.012 4.54915 127.647 4.97754C127.287 5.40592 127.107 6.10775 127.107 7.08301V11H125.973V0.363281H127.107V3.58301C127.107 3.97038 127.089 4.29167 127.053 4.54688H127.121C127.344 4.18685 127.661 3.9043 128.071 3.69922C128.486 3.48958 128.958 3.38477 129.486 3.38477C130.402 3.38477 131.088 3.60352 131.544 4.04102C132.004 4.47396 132.234 5.16439 132.234 6.1123V11H131.1ZM141.039 7.24707C141.039 8.46842 140.731 9.42318 140.116 10.1113C139.501 10.7949 138.651 11.1367 137.566 11.1367C136.896 11.1367 136.302 10.9795 135.782 10.665C135.263 10.3506 134.862 9.89941 134.579 9.31152C134.297 8.72363 134.155 8.03548 134.155 7.24707C134.155 6.02572 134.461 5.07552 135.071 4.39648C135.682 3.71289 136.53 3.37109 137.614 3.37109C138.662 3.37109 139.494 3.71973 140.109 4.41699C140.729 5.11426 141.039 6.05762 141.039 7.24707ZM135.331 7.24707C135.331 8.2041 135.522 8.93327 135.905 9.43457C136.288 9.93587 136.851 10.1865 137.594 10.1865C138.337 10.1865 138.899 9.93815 139.282 9.44141C139.67 8.9401 139.863 8.20866 139.863 7.24707C139.863 6.2946 139.67 5.57227 139.282 5.08008C138.899 4.58333 138.332 4.33496 137.58 4.33496C136.837 4.33496 136.277 4.57878 135.898 5.06641C135.52 5.55404 135.331 6.28092 135.331 7.24707ZM146.521 11.1367C146.034 11.1367 145.587 11.0479 145.182 10.8701C144.781 10.6878 144.443 10.4098 144.17 10.0361H144.088C144.143 10.4736 144.17 10.8883 144.17 11.2803V14.3633H143.035V3.50781H143.958L144.115 4.5332H144.17C144.462 4.12305 144.801 3.82682 145.188 3.64453C145.576 3.46224 146.02 3.37109 146.521 3.37109C147.515 3.37109 148.281 3.71061 148.818 4.38965C149.361 5.06868 149.632 6.02116 149.632 7.24707C149.632 8.47754 149.356 9.43457 148.805 10.1182C148.258 10.7972 147.497 11.1367 146.521 11.1367ZM146.357 4.33496C145.592 4.33496 145.038 4.54688 144.696 4.9707C144.354 5.39453 144.179 6.06901 144.17 6.99414V7.24707C144.17 8.2998 144.345 9.05404 144.696 9.50977C145.047 9.96094 145.61 10.1865 146.385 10.1865C147.032 10.1865 147.538 9.92448 147.902 9.40039C148.271 8.8763 148.456 8.15397 148.456 7.2334C148.456 6.29915 148.271 5.58366 147.902 5.08691C147.538 4.58561 147.023 4.33496 146.357 4.33496ZM151.457 10.2754C151.457 9.97005 151.525 9.73991 151.662 9.58496C151.803 9.42546 152.004 9.3457 152.264 9.3457C152.528 9.3457 152.733 9.42546 152.879 9.58496C153.029 9.73991 153.104 9.97005 153.104 10.2754C153.104 10.5716 153.029 10.7995 152.879 10.959C152.729 11.1185 152.523 11.1982 152.264 11.1982C152.031 11.1982 151.838 11.1276 151.683 10.9863C151.532 10.8405 151.457 10.6035 151.457 10.2754ZM158.771 3.37109C159.104 3.37109 159.403 3.39844 159.667 3.45312L159.51 4.50586C159.2 4.4375 158.926 4.40332 158.689 4.40332C158.083 4.40332 157.564 4.64941 157.131 5.1416C156.702 5.63379 156.488 6.24674 156.488 6.98047V11H155.354V3.50781H156.29L156.42 4.89551H156.475C156.753 4.40788 157.088 4.0319 157.479 3.76758C157.871 3.50326 158.302 3.37109 158.771 3.37109ZM162.135 3.50781V8.36816C162.135 8.97884 162.274 9.43457 162.552 9.73535C162.83 10.0361 163.265 10.1865 163.857 10.1865C164.641 10.1865 165.213 9.97233 165.573 9.54395C165.938 9.11556 166.12 8.41602 166.12 7.44531V3.50781H167.255V11H166.318L166.154 9.99512H166.093C165.86 10.3643 165.537 10.6468 165.122 10.8428C164.712 11.0387 164.243 11.1367 163.714 11.1367C162.802 11.1367 162.119 10.9202 161.663 10.4873C161.212 10.0544 160.986 9.36165 160.986 8.40918V3.50781H162.135ZM5.71484 64.4785H2.33789V71H1.20312V63.5078H5.71484V64.4785ZM7.04102 70.2754C7.04102 69.9701 7.10938 69.7399 7.24609 69.585C7.38737 69.4255 7.58789 69.3457 7.84766 69.3457C8.11198 69.3457 8.31706 69.4255 8.46289 69.585C8.61328 69.7399 8.68848 69.9701 8.68848 70.2754C8.68848 70.5716 8.61328 70.7995 8.46289 70.959C8.3125 71.1185 8.10742 71.1982 7.84766 71.1982C7.61523 71.1982 7.42155 71.1276 7.2666 70.9863C7.11621 70.8405 7.04102 70.6035 7.04102 70.2754ZM19.0244 61.9014C17.9261 61.9014 17.0579 62.2682 16.4199 63.002C15.7865 63.7311 15.4697 64.7314 15.4697 66.0029C15.4697 67.3109 15.7751 68.3226 16.3857 69.0381C17.001 69.749 17.876 70.1045 19.0107 70.1045C19.708 70.1045 20.5033 69.9792 21.3965 69.7285V70.7471C20.7038 71.0068 19.8493 71.1367 18.833 71.1367C17.361 71.1367 16.224 70.6901 15.4219 69.7969C14.6243 68.9036 14.2256 67.6344 14.2256 65.9893C14.2256 64.9593 14.417 64.057 14.7998 63.2822C15.1872 62.5075 15.7432 61.9105 16.4678 61.4912C17.1969 61.0719 18.0537 60.8623 19.0381 60.8623C20.0863 60.8623 21.0023 61.0537 21.7861 61.4365L21.2939 62.4346C20.5374 62.0791 19.7809 61.9014 19.0244 61.9014ZM28.0137 71L27.7881 69.9336H27.7334C27.3597 70.403 26.986 70.722 26.6123 70.8906C26.2432 71.0547 25.7806 71.1367 25.2246 71.1367C24.4818 71.1367 23.8984 70.9453 23.4746 70.5625C23.0553 70.1797 22.8457 69.6351 22.8457 68.9287C22.8457 67.4157 24.0557 66.6227 26.4756 66.5498L27.7471 66.5088V66.0439C27.7471 65.4561 27.6195 65.0231 27.3643 64.7451C27.1136 64.4626 26.7103 64.3213 26.1543 64.3213C25.5299 64.3213 24.8236 64.5127 24.0352 64.8955L23.6865 64.0273C24.0557 63.8268 24.459 63.6696 24.8965 63.5557C25.3385 63.4417 25.7806 63.3848 26.2227 63.3848C27.1159 63.3848 27.7767 63.583 28.2051 63.9795C28.638 64.376 28.8545 65.0117 28.8545 65.8867V71H28.0137ZM25.4502 70.2002C26.1566 70.2002 26.7103 70.0065 27.1113 69.6191C27.5169 69.2318 27.7197 68.6895 27.7197 67.9922V67.3154L26.585 67.3633C25.6826 67.3952 25.0309 67.5365 24.6299 67.7871C24.2334 68.0332 24.0352 68.4183 24.0352 68.9424C24.0352 69.3525 24.1582 69.6647 24.4043 69.8789C24.6549 70.0931 25.0036 70.2002 25.4502 70.2002ZM32.334 63.5078V66.6455H36.5312V63.5078H37.666V71H36.5312V67.623H32.334V71H31.1992V63.5078H32.334ZM44.4404 63.5078H45.6846L42.4512 67.124L45.9512 71H44.625L41.207 67.2061V71H40.0723V63.5078H41.207V67.1514L44.4404 63.5078ZM52.3975 64.4785H49.9639V71H48.8291V64.4785H46.4229V63.5078H52.3975V64.4785ZM53.252 67.7666V66.7275H56.6084V67.7666H53.252ZM66.0215 71H64.8594V62.0381H59.7256V71H58.5635V61.0059H66.0215V71ZM71.7705 71.1367C70.6631 71.1367 69.7881 70.7995 69.1455 70.125C68.5075 69.4505 68.1885 68.514 68.1885 67.3154C68.1885 66.1077 68.4847 65.1484 69.0771 64.4375C69.6742 63.7266 70.474 63.3711 71.4766 63.3711C72.4154 63.3711 73.1582 63.681 73.7051 64.3008C74.252 64.916 74.5254 65.7295 74.5254 66.7412V67.459H69.3643C69.387 68.3385 69.6081 69.0062 70.0273 69.4619C70.4512 69.9176 71.0459 70.1455 71.8115 70.1455C72.6182 70.1455 73.4157 69.9769 74.2041 69.6396V70.6514C73.8031 70.8245 73.4225 70.9476 73.0625 71.0205C72.707 71.098 72.2764 71.1367 71.7705 71.1367ZM71.4629 64.3213C70.8613 64.3213 70.3805 64.5173 70.0205 64.9092C69.665 65.3011 69.4554 65.8434 69.3916 66.5361H73.3086C73.3086 65.8206 73.1491 65.2738 72.8301 64.8955C72.5111 64.5127 72.0553 64.3213 71.4629 64.3213ZM81.5186 64.4785H79.085V71H77.9502V64.4785H75.5439V63.5078H81.5186V64.4785ZM86.167 71.1367C85.0596 71.1367 84.1846 70.7995 83.542 70.125C82.904 69.4505 82.585 68.514 82.585 67.3154C82.585 66.1077 82.8812 65.1484 83.4736 64.4375C84.0706 63.7266 84.8704 63.3711 85.873 63.3711C86.8118 63.3711 87.5547 63.681 88.1016 64.3008C88.6484 64.916 88.9219 65.7295 88.9219 66.7412V67.459H83.7607C83.7835 68.3385 84.0046 69.0062 84.4238 69.4619C84.8477 69.9176 85.4424 70.1455 86.208 70.1455C87.0146 70.1455 87.8122 69.9769 88.6006 69.6396V70.6514C88.1995 70.8245 87.819 70.9476 87.459 71.0205C87.1035 71.098 86.6729 71.1367 86.167 71.1367ZM85.8594 64.3213C85.2578 64.3213 84.777 64.5173 84.417 64.9092C84.0615 65.3011 83.8519 65.8434 83.7881 66.5361H87.7051C87.7051 65.8206 87.5456 65.2738 87.2266 64.8955C86.9076 64.5127 86.4518 64.3213 85.8594 64.3213ZM94.3496 71.1367C93.862 71.1367 93.4154 71.0479 93.0098 70.8701C92.6087 70.6878 92.2715 70.4098 91.998 70.0361H91.916C91.9707 70.4736 91.998 70.8883 91.998 71.2803V74.3633H90.8633V63.5078H91.7861L91.9434 64.5332H91.998C92.2897 64.123 92.6292 63.8268 93.0166 63.6445C93.404 63.4622 93.8483 63.3711 94.3496 63.3711C95.3431 63.3711 96.1087 63.7106 96.6465 64.3896C97.1888 65.0687 97.46 66.0212 97.46 67.2471C97.46 68.4775 97.1842 69.4346 96.6328 70.1182C96.0859 70.7972 95.3249 71.1367 94.3496 71.1367ZM94.1855 64.335C93.4199 64.335 92.8662 64.5469 92.5244 64.9707C92.1826 65.3945 92.0072 66.069 91.998 66.9941V67.2471C91.998 68.2998 92.1735 69.054 92.5244 69.5098C92.8753 69.9609 93.4382 70.1865 94.2129 70.1865C94.86 70.1865 95.3659 69.9245 95.7305 69.4004C96.0996 68.8763 96.2842 68.154 96.2842 67.2334C96.2842 66.2992 96.0996 65.5837 95.7305 65.0869C95.3659 64.5856 94.8509 64.335 94.1855 64.335ZM99.0596 66.5088C99.0596 64.8682 99.3011 63.5898 99.7842 62.6738C100.267 61.7533 101.033 61.179 102.081 60.9512C103.384 60.6732 104.533 60.4476 105.526 60.2744L105.738 61.2725C104.157 61.5368 103.027 61.7464 102.348 61.9014C101.687 62.0518 101.19 62.4072 100.857 62.9678C100.529 63.5283 100.349 64.2917 100.317 65.2578H100.399C100.682 64.875 101.047 64.5742 101.493 64.3555C101.94 64.1367 102.407 64.0273 102.895 64.0273C103.815 64.0273 104.533 64.3258 105.048 64.9229C105.563 65.5199 105.82 66.347 105.82 67.4043C105.82 68.5755 105.522 69.4915 104.925 70.1523C104.328 70.8086 103.496 71.1367 102.43 71.1367C101.377 71.1367 100.552 70.7334 99.9551 69.9268C99.3581 69.1201 99.0596 67.9808 99.0596 66.5088ZM102.532 70.1865C103.922 70.1865 104.617 69.3001 104.617 67.5273C104.617 65.8366 103.986 64.9912 102.724 64.9912C102.377 64.9912 102.042 65.0641 101.719 65.21C101.4 65.3512 101.106 65.5404 100.837 65.7773C100.573 66.0143 100.368 66.2581 100.222 66.5088C100.222 67.7074 100.411 68.6211 100.789 69.25C101.167 69.8743 101.748 70.1865 102.532 70.1865ZM106.613 63.5078H107.83L109.471 67.7803C109.831 68.7555 110.054 69.4596 110.141 69.8926H110.195C110.255 69.6602 110.378 69.2637 110.564 68.7031C110.756 68.138 111.376 66.4062 112.424 63.5078H113.641L110.421 72.0391C110.102 72.8822 109.728 73.4792 109.3 73.8301C108.876 74.1855 108.354 74.3633 107.734 74.3633C107.388 74.3633 107.046 74.3245 106.709 74.2471V73.3379C106.96 73.3926 107.24 73.4199 107.55 73.4199C108.329 73.4199 108.885 72.9824 109.218 72.1074L109.635 71.041L106.613 63.5078ZM118.344 71.1367C117.856 71.1367 117.41 71.0479 117.004 70.8701C116.603 70.6878 116.266 70.4098 115.992 70.0361H115.91C115.965 70.4736 115.992 70.8883 115.992 71.2803V74.3633H114.857V63.5078H115.78L115.938 64.5332H115.992C116.284 64.123 116.623 63.8268 117.011 63.6445C117.398 63.4622 117.842 63.3711 118.344 63.3711C119.337 63.3711 120.103 63.7106 120.641 64.3896C121.183 65.0687 121.454 66.0212 121.454 67.2471C121.454 68.4775 121.178 69.4346 120.627 70.1182C120.08 70.7972 119.319 71.1367 118.344 71.1367ZM118.18 64.335C117.414 64.335 116.86 64.5469 116.519 64.9707C116.177 65.3945 116.001 66.069 115.992 66.9941V67.2471C115.992 68.2998 116.168 69.054 116.519 69.5098C116.869 69.9609 117.432 70.1865 118.207 70.1865C118.854 70.1865 119.36 69.9245 119.725 69.4004C120.094 68.8763 120.278 68.154 120.278 67.2334C120.278 66.2992 120.094 65.5837 119.725 65.0869C119.36 64.5856 118.845 64.335 118.18 64.335ZM127.955 64.4785H124.578V71H123.443V63.5078H127.955V64.4785ZM0.0136719 93.5078H1.23047L2.87109 97.7803C3.23112 98.7555 3.45443 99.4596 3.54102 99.8926H3.5957C3.65495 99.6602 3.77799 99.2637 3.96484 98.7031C4.15625 98.138 4.77604 96.4062 5.82422 93.5078H7.04102L3.82129 102.039C3.50228 102.882 3.12858 103.479 2.7002 103.83C2.27637 104.186 1.75456 104.363 1.13477 104.363C0.788411 104.363 0.446615 104.325 0.109375 104.247V103.338C0.360026 103.393 0.640299 103.42 0.950195 103.42C1.72949 103.42 2.28548 102.982 2.61816 102.107L3.03516 101.041L0.0136719 93.5078ZM13.8428 101H12.6943V94.4785H10.4453C10.3223 96.1009 10.1514 97.3883 9.93262 98.3408C9.71387 99.2933 9.42904 99.9906 9.07812 100.433C8.73177 100.875 8.28971 101.096 7.75195 101.096C7.50586 101.096 7.3099 101.068 7.16406 101.014V100.173C7.26432 100.2 7.37826 100.214 7.50586 100.214C8.02995 100.214 8.44694 99.6602 8.75684 98.5527C9.06673 97.4453 9.30143 95.7637 9.46094 93.5078H13.8428V101ZM16.0918 100.275C16.0918 99.9701 16.1602 99.7399 16.2969 99.585C16.4382 99.4255 16.6387 99.3457 16.8984 99.3457C17.1628 99.3457 17.3678 99.4255 17.5137 99.585C17.6641 99.7399 17.7393 99.9701 17.7393 100.275C17.7393 100.572 17.6641 100.799 17.5137 100.959C17.3633 101.118 17.1582 101.198 16.8984 101.198C16.666 101.198 16.4723 101.128 16.3174 100.986C16.167 100.84 16.0918 100.604 16.0918 100.275ZM30.2764 98.0879C30.2764 99.0814 29.9801 99.8151 29.3877 100.289C28.7998 100.763 27.9111 101 26.7217 101H23.7959V91.0059H29.6885V92.0381H24.958V95.2715H26.5098C27.3893 95.2715 28.1048 95.374 28.6562 95.5791C29.2077 95.7796 29.6156 96.0781 29.8799 96.4746C30.1442 96.8711 30.2764 97.4089 30.2764 98.0879ZM24.958 99.9951H26.5918C27.4577 99.9951 28.0866 99.847 28.4785 99.5508C28.875 99.2546 29.0732 98.7669 29.0732 98.0879C29.0732 97.4408 28.8727 96.9805 28.4717 96.707C28.0706 96.4336 27.3711 96.2969 26.373 96.2969H24.958V99.9951ZM38.6777 97.2471C38.6777 98.4684 38.3701 99.4232 37.7549 100.111C37.1396 100.795 36.2897 101.137 35.2051 101.137C34.5352 101.137 33.9404 100.979 33.4209 100.665C32.9014 100.351 32.5003 99.8994 32.2178 99.3115C31.9352 98.7236 31.7939 98.0355 31.7939 97.2471C31.7939 96.0257 32.0993 95.0755 32.71 94.3965C33.3206 93.7129 34.1683 93.3711 35.2529 93.3711C36.3011 93.3711 37.1328 93.7197 37.748 94.417C38.3678 95.1143 38.6777 96.0576 38.6777 97.2471ZM32.9697 97.2471C32.9697 98.2041 33.1611 98.9333 33.5439 99.4346C33.9268 99.9359 34.4896 100.187 35.2324 100.187C35.9753 100.187 36.5381 99.9382 36.9209 99.4414C37.3083 98.9401 37.502 98.2087 37.502 97.2471C37.502 96.2946 37.3083 95.5723 36.9209 95.0801C36.5381 94.5833 35.9707 94.335 35.2188 94.335C34.4759 94.335 33.9154 94.5788 33.5371 95.0664C33.1589 95.554 32.9697 96.2809 32.9697 97.2471ZM46.2588 101H45.1104V94.4785H42.8613C42.7383 96.1009 42.5674 97.3883 42.3486 98.3408C42.1299 99.2933 41.8451 99.9906 41.4941 100.433C41.1478 100.875 40.7057 101.096 40.168 101.096C39.9219 101.096 39.7259 101.068 39.5801 101.014V100.173C39.6803 100.2 39.7943 100.214 39.9219 100.214C40.446 100.214 40.863 99.6602 41.1729 98.5527C41.4827 97.4453 41.7174 95.7637 41.877 93.5078H46.2588V101ZM49.8066 96.6045H52.1172C54.0312 96.6045 54.9883 97.3086 54.9883 98.7168C54.9883 99.4551 54.7376 100.02 54.2363 100.412C53.7396 100.804 53.0104 101 52.0488 101H48.6719V93.5078H49.8066V96.6045ZM49.8066 97.582V100.05H51.9941C52.5957 100.05 53.056 99.945 53.375 99.7354C53.694 99.5257 53.8535 99.209 53.8535 98.7852C53.8535 98.3704 53.7054 98.0674 53.4092 97.876C53.1175 97.68 52.6344 97.582 51.96 97.582H49.8066ZM62.542 100.022H65.8643V93.5078H67.0127V101H56.957V93.5078H58.0918V100.022H61.4072V93.5078H62.542V100.022ZM74.0332 101L73.8076 99.9336H73.7529C73.3792 100.403 73.0055 100.722 72.6318 100.891C72.2627 101.055 71.8001 101.137 71.2441 101.137C70.5013 101.137 69.918 100.945 69.4941 100.562C69.0749 100.18 68.8652 99.6351 68.8652 98.9287C68.8652 97.4157 70.0752 96.6227 72.4951 96.5498L73.7666 96.5088V96.0439C73.7666 95.4561 73.639 95.0231 73.3838 94.7451C73.1331 94.4626 72.7298 94.3213 72.1738 94.3213C71.5495 94.3213 70.8431 94.5127 70.0547 94.8955L69.7061 94.0273C70.0752 93.8268 70.4785 93.6696 70.916 93.5557C71.3581 93.4417 71.8001 93.3848 72.2422 93.3848C73.1354 93.3848 73.7962 93.583 74.2246 93.9795C74.6576 94.376 74.874 95.0117 74.874 95.8867V101H74.0332ZM71.4697 100.2C72.1761 100.2 72.7298 100.007 73.1309 99.6191C73.5365 99.2318 73.7393 98.6895 73.7393 97.9922V97.3154L72.6045 97.3633C71.7021 97.3952 71.0505 97.5365 70.6494 97.7871C70.2529 98.0332 70.0547 98.4183 70.0547 98.9424C70.0547 99.3525 70.1777 99.6647 70.4238 99.8789C70.6745 100.093 71.0231 100.2 71.4697 100.2ZM77.5947 101H76.2686L78.4219 97.835C77.8431 97.7074 77.3988 97.4613 77.0889 97.0967C76.7835 96.7275 76.6309 96.265 76.6309 95.709C76.6309 95.0254 76.861 94.4876 77.3213 94.0957C77.7816 93.7038 78.4242 93.5078 79.249 93.5078H82.585V101H81.4502V98.0059H79.5566L77.5947 101ZM77.7383 95.7227C77.7383 96.5885 78.3672 97.0215 79.625 97.0215H81.4502V94.4922H79.3926C78.2897 94.4922 77.7383 94.9023 77.7383 95.7227ZM95.9971 101H94.5889L89.9678 95.9346V101H88.8057V91.0059H89.9678V95.8457L94.4727 91.0059H95.8057L91.3828 95.8594L95.9971 101ZM103.674 97.2471C103.674 98.4684 103.366 99.4232 102.751 100.111C102.136 100.795 101.286 101.137 100.201 101.137C99.5312 101.137 98.9365 100.979 98.417 100.665C97.8975 100.351 97.4964 99.8994 97.2139 99.3115C96.9313 98.7236 96.79 98.0355 96.79 97.2471C96.79 96.0257 97.0954 95.0755 97.7061 94.3965C98.3167 93.7129 99.1644 93.3711 100.249 93.3711C101.297 93.3711 102.129 93.7197 102.744 94.417C103.364 95.1143 103.674 96.0576 103.674 97.2471ZM97.9658 97.2471C97.9658 98.2041 98.1572 98.9333 98.54 99.4346C98.9229 99.9359 99.4857 100.187 100.229 100.187C100.971 100.187 101.534 99.9382 101.917 99.4414C102.304 98.9401 102.498 98.2087 102.498 97.2471C102.498 96.2946 102.304 95.5723 101.917 95.0801C101.534 94.5833 100.967 94.335 100.215 94.335C99.472 94.335 98.9115 94.5788 98.5332 95.0664C98.1549 95.554 97.9658 96.2809 97.9658 97.2471ZM106.805 93.5078V96.6455H111.002V93.5078H112.137V101H111.002V97.623H106.805V101H105.67V93.5078H106.805ZM124.188 97.2471C124.188 98.473 123.895 99.4277 123.307 100.111C122.723 100.795 121.921 101.137 120.9 101.137C119.93 101.137 119.16 100.834 118.59 100.228C118.02 99.6169 117.703 98.7487 117.64 97.623H115.678V101H114.543V93.5078H115.678V96.6455H117.653C117.744 95.6064 118.077 94.8021 118.651 94.2324C119.226 93.6582 119.984 93.3711 120.928 93.3711C121.93 93.3711 122.723 93.7197 123.307 94.417C123.895 95.1097 124.188 96.0531 124.188 97.2471ZM118.815 97.2471C118.815 98.2087 118.982 98.9401 119.314 99.4414C119.647 99.9382 120.18 100.187 120.914 100.187C121.634 100.187 122.163 99.945 122.5 99.4619C122.842 98.9743 123.013 98.236 123.013 97.2471C123.013 96.29 122.846 95.5654 122.514 95.0732C122.181 94.5811 121.648 94.335 120.914 94.335C120.18 94.335 119.647 94.5811 119.314 95.0732C118.982 95.5654 118.815 96.29 118.815 97.2471ZM131.763 100.022H135.085V93.5078H136.233V101H126.178V93.5078H127.312V100.022H130.628V93.5078H131.763V100.022ZM141.812 101.137C140.704 101.137 139.829 100.799 139.187 100.125C138.549 99.4505 138.229 98.514 138.229 97.3154C138.229 96.1077 138.526 95.1484 139.118 94.4375C139.715 93.7266 140.515 93.3711 141.518 93.3711C142.456 93.3711 143.199 93.681 143.746 94.3008C144.293 94.916 144.566 95.7295 144.566 96.7412V97.459H139.405C139.428 98.3385 139.649 99.0062 140.068 99.4619C140.492 99.9176 141.087 100.146 141.853 100.146C142.659 100.146 143.457 99.9769 144.245 99.6396V100.651C143.844 100.825 143.464 100.948 143.104 101.021C142.748 101.098 142.317 101.137 141.812 101.137ZM141.504 94.3213C140.902 94.3213 140.422 94.5173 140.062 94.9092C139.706 95.3011 139.496 95.8434 139.433 96.5361H143.35C143.35 95.8206 143.19 95.2738 142.871 94.8955C142.552 94.5127 142.096 94.3213 141.504 94.3213ZM147.643 93.5078V96.6455H151.84V93.5078H152.975V101H151.84V97.623H147.643V101H146.508V93.5078H147.643ZM156.516 93.5078V96.6455H160.713V93.5078H161.848V101H160.713V97.623H156.516V101H155.381V93.5078H156.516ZM168.861 101L168.636 99.9336H168.581C168.207 100.403 167.834 100.722 167.46 100.891C167.091 101.055 166.628 101.137 166.072 101.137C165.329 101.137 164.746 100.945 164.322 100.562C163.903 100.18 163.693 99.6351 163.693 98.9287C163.693 97.4157 164.903 96.6227 167.323 96.5498L168.595 96.5088V96.0439C168.595 95.4561 168.467 95.0231 168.212 94.7451C167.961 94.4626 167.558 94.3213 167.002 94.3213C166.378 94.3213 165.671 94.5127 164.883 94.8955L164.534 94.0273C164.903 93.8268 165.307 93.6696 165.744 93.5557C166.186 93.4417 166.628 93.3848 167.07 93.3848C167.964 93.3848 168.624 93.583 169.053 93.9795C169.486 94.376 169.702 95.0117 169.702 95.8867V101H168.861ZM166.298 100.2C167.004 100.2 167.558 100.007 167.959 99.6191C168.365 99.2318 168.567 98.6895 168.567 97.9922V97.3154L167.433 97.3633C166.53 97.3952 165.879 97.5365 165.478 97.7871C165.081 98.0332 164.883 98.4183 164.883 98.9424C164.883 99.3525 165.006 99.6647 165.252 99.8789C165.503 100.093 165.851 100.2 166.298 100.2ZM172.423 101H171.097L173.25 97.835C172.671 97.7074 172.227 97.4613 171.917 97.0967C171.612 96.7275 171.459 96.265 171.459 95.709C171.459 95.0254 171.689 94.4876 172.149 94.0957C172.61 93.7038 173.252 93.5078 174.077 93.5078H177.413V101H176.278V98.0059H174.385L172.423 101ZM172.566 95.7227C172.566 96.5885 173.195 97.0215 174.453 97.0215H176.278V94.4922H174.221C173.118 94.4922 172.566 94.9023 172.566 95.7227ZM7.71094 133.591H6.61035V131H1.37402V133.591H0.280273V130.022H0.868164C1.47884 129.193 1.95736 128.22 2.30371 127.104C2.65007 125.987 2.83008 124.788 2.84375 123.508H6.6377V130.022H7.71094V133.591ZM5.54395 130.022V124.403H3.8623C3.80306 125.415 3.6071 126.44 3.27441 127.479C2.94629 128.514 2.53613 129.362 2.04395 130.022H5.54395ZM9.05078 130.275C9.05078 129.97 9.11914 129.74 9.25586 129.585C9.39714 129.425 9.59766 129.346 9.85742 129.346C10.1217 129.346 10.3268 129.425 10.4727 129.585C10.623 129.74 10.6982 129.97 10.6982 130.275C10.6982 130.572 10.623 130.799 10.4727 130.959C10.3223 131.118 10.1172 131.198 9.85742 131.198C9.625 131.198 9.43132 131.128 9.27637 130.986C9.12598 130.84 9.05078 130.604 9.05078 130.275ZM20.2686 131H19.1611V123.877C19.1611 123.285 19.1794 122.724 19.2158 122.195C19.1201 122.291 19.013 122.391 18.8945 122.496C18.776 122.601 18.2337 123.045 17.2676 123.829L16.666 123.05L19.3115 121.006H20.2686V131ZM30.6455 125.271C30.6455 129.182 29.1325 131.137 26.1064 131.137C25.5778 131.137 25.1585 131.091 24.8486 131V130.022C25.2132 130.141 25.6279 130.2 26.0928 130.2C27.1865 130.2 28.0114 129.863 28.5674 129.188C29.1279 128.509 29.4333 127.47 29.4834 126.071H29.4014C29.1507 126.45 28.818 126.739 28.4033 126.939C27.9886 127.135 27.5215 127.233 27.002 127.233C26.1178 127.233 25.416 126.969 24.8965 126.44C24.377 125.912 24.1172 125.174 24.1172 124.226C24.1172 123.187 24.4066 122.366 24.9854 121.765C25.5687 121.163 26.3343 120.862 27.2822 120.862C27.9613 120.862 28.5537 121.038 29.0596 121.389C29.57 121.735 29.9619 122.243 30.2354 122.913C30.5088 123.578 30.6455 124.365 30.6455 125.271ZM27.2822 121.833C26.6305 121.833 26.127 122.043 25.7715 122.462C25.416 122.881 25.2383 123.465 25.2383 124.212C25.2383 124.868 25.4023 125.385 25.7305 125.764C26.0586 126.137 26.5576 126.324 27.2275 126.324C27.6423 126.324 28.0228 126.24 28.3691 126.071C28.7201 125.903 28.9958 125.673 29.1963 125.381C29.3968 125.089 29.4971 124.784 29.4971 124.465C29.4971 123.986 29.4036 123.544 29.2168 123.139C29.0299 122.733 28.7679 122.414 28.4307 122.182C28.098 121.949 27.7152 121.833 27.2822 121.833ZM36.4014 121.006L32.6758 131H31.541L35.2666 121.006H36.4014ZM40.5371 120.862C41.4486 120.862 42.1709 121.074 42.7041 121.498C43.2373 121.922 43.5039 122.507 43.5039 123.255C43.5039 123.747 43.3512 124.196 43.0459 124.602C42.7406 125.007 42.2529 125.376 41.583 125.709C42.3942 126.096 42.9707 126.504 43.3125 126.933C43.6543 127.356 43.8252 127.849 43.8252 128.409C43.8252 129.239 43.5358 129.902 42.957 130.398C42.3783 130.891 41.5853 131.137 40.5781 131.137C39.5117 131.137 38.6914 130.904 38.1172 130.439C37.543 129.97 37.2559 129.307 37.2559 128.45C37.2559 127.306 37.9531 126.415 39.3477 125.777C38.7188 125.422 38.2676 125.039 37.9941 124.629C37.7207 124.214 37.584 123.752 37.584 123.241C37.584 122.517 37.8506 121.94 38.3838 121.512C38.9215 121.079 39.6393 120.862 40.5371 120.862ZM38.377 128.478C38.377 129.024 38.5661 129.451 38.9443 129.756C39.3271 130.061 39.8626 130.214 40.5508 130.214C41.2298 130.214 41.7585 130.054 42.1367 129.735C42.515 129.416 42.7041 128.979 42.7041 128.423C42.7041 127.981 42.5264 127.589 42.1709 127.247C41.8154 126.901 41.1956 126.566 40.3115 126.242C39.6325 126.534 39.1403 126.857 38.835 127.213C38.5296 127.564 38.377 127.985 38.377 128.478ZM40.5234 121.785C39.9538 121.785 39.5072 121.922 39.1836 122.195C38.86 122.469 38.6982 122.833 38.6982 123.289C38.6982 123.708 38.8327 124.068 39.1016 124.369C39.3704 124.67 39.8672 124.971 40.5918 125.271C41.2435 124.998 41.7038 124.704 41.9727 124.39C42.2461 124.075 42.3828 123.708 42.3828 123.289C42.3828 122.829 42.2165 122.464 41.8838 122.195C41.5557 121.922 41.1022 121.785 40.5234 121.785ZM46.9492 129.373L47.0518 129.53C46.9333 129.986 46.7624 130.515 46.5391 131.116C46.3158 131.722 46.0833 132.285 45.8418 132.805H44.9873C45.1104 132.331 45.2448 131.745 45.3906 131.048C45.541 130.351 45.6458 129.792 45.7051 129.373H46.9492ZM59.2949 127.247C59.2949 128.468 58.9873 129.423 58.3721 130.111C57.7568 130.795 56.9069 131.137 55.8223 131.137C55.1523 131.137 54.5576 130.979 54.0381 130.665C53.5186 130.351 53.1175 129.899 52.835 129.312C52.5524 128.724 52.4111 128.035 52.4111 127.247C52.4111 126.026 52.7165 125.076 53.3271 124.396C53.9378 123.713 54.7855 123.371 55.8701 123.371C56.9183 123.371 57.75 123.72 58.3652 124.417C58.985 125.114 59.2949 126.058 59.2949 127.247ZM53.5869 127.247C53.5869 128.204 53.7783 128.933 54.1611 129.435C54.5439 129.936 55.1068 130.187 55.8496 130.187C56.5924 130.187 57.1553 129.938 57.5381 129.441C57.9255 128.94 58.1191 128.209 58.1191 127.247C58.1191 126.295 57.9255 125.572 57.5381 125.08C57.1553 124.583 56.5879 124.335 55.8359 124.335C55.0931 124.335 54.5326 124.579 54.1543 125.066C53.776 125.554 53.5869 126.281 53.5869 127.247ZM69.3164 127.247C69.3164 128.382 68.9928 129.286 68.3457 129.961C67.7031 130.631 66.8031 131.014 65.6455 131.109V134.363H64.5244V131.109C63.3942 131.023 62.501 130.635 61.8447 129.947C61.1885 129.259 60.8604 128.359 60.8604 127.247C60.8604 126.112 61.1862 125.21 61.8379 124.54C62.4941 123.87 63.4033 123.49 64.5654 123.398V120.363H65.6455V123.398C66.7894 123.503 67.6872 123.897 68.3389 124.581C68.9906 125.265 69.3164 126.153 69.3164 127.247ZM62.0498 127.247C62.0498 128.122 62.2503 128.808 62.6514 129.305C63.0524 129.801 63.6904 130.091 64.5654 130.173V124.349C63.7223 124.426 63.0911 124.702 62.6719 125.176C62.2572 125.645 62.0498 126.336 62.0498 127.247ZM68.1406 127.247C68.1406 125.502 67.3089 124.54 65.6455 124.362V130.173C66.5114 130.086 67.1426 129.795 67.5391 129.298C67.9401 128.801 68.1406 128.118 68.1406 127.247ZM72.3652 123.508V128.259L72.3174 129.503L72.2969 129.893L76.3506 123.508H77.7656V131H76.7061V126.42L76.7266 125.518L76.7607 124.629L72.7139 131H71.2988V123.508H72.3652ZM83.166 131.137C82.0814 131.137 81.2406 130.804 80.6436 130.139C80.0511 129.469 79.7549 128.523 79.7549 127.302C79.7549 126.049 80.0557 125.08 80.6572 124.396C81.2633 123.713 82.1247 123.371 83.2412 123.371C83.6012 123.371 83.9613 123.41 84.3213 123.487C84.6813 123.565 84.9639 123.656 85.1689 123.761L84.8203 124.725C84.5697 124.624 84.2962 124.542 84 124.479C83.7038 124.41 83.4417 124.376 83.2139 124.376C81.6917 124.376 80.9307 125.347 80.9307 127.288C80.9307 128.209 81.1152 128.915 81.4844 129.407C81.8581 129.899 82.4095 130.146 83.1387 130.146C83.763 130.146 84.4033 130.011 85.0596 129.742V130.747C84.5583 131.007 83.9271 131.137 83.166 131.137ZM94.165 131H93.0576V123.877C93.0576 123.285 93.0758 122.724 93.1123 122.195C93.0166 122.291 92.9095 122.391 92.791 122.496C92.6725 122.601 92.1302 123.045 91.1641 123.829L90.5625 123.05L93.208 121.006H94.165V131ZM104.597 125.989C104.597 127.716 104.323 129.006 103.776 129.858C103.234 130.711 102.402 131.137 101.281 131.137C100.206 131.137 99.3877 130.701 98.8271 129.831C98.2666 128.956 97.9863 127.675 97.9863 125.989C97.9863 124.248 98.2575 122.956 98.7998 122.113C99.3421 121.27 100.169 120.849 101.281 120.849C102.366 120.849 103.188 121.288 103.749 122.168C104.314 123.048 104.597 124.321 104.597 125.989ZM99.1348 125.989C99.1348 127.443 99.3057 128.503 99.6475 129.168C99.9893 129.829 100.534 130.159 101.281 130.159C102.038 130.159 102.585 129.824 102.922 129.154C103.264 128.48 103.435 127.425 103.435 125.989C103.435 124.554 103.264 123.503 102.922 122.838C102.585 122.168 102.038 121.833 101.281 121.833C100.534 121.833 99.9893 122.163 99.6475 122.824C99.3057 123.48 99.1348 124.535 99.1348 125.989ZM110.188 131H109.081V123.877C109.081 123.285 109.099 122.724 109.136 122.195C109.04 122.291 108.933 122.391 108.814 122.496C108.696 122.601 108.154 123.045 107.188 123.829L106.586 123.05L109.231 121.006H110.188V131Z" fill="#444444"/>
</svg>
