<svg width="67" height="92" viewBox="0 0 67 92" fill="none" xmlns="http://www.w3.org/2000/svg">
<path d="M9.46289 9.87207H10.7227V13.7905H9.54346V11H1.47217V0.291992H2.71729V9.87207H8.21777V0.291992H9.46289V9.87207ZM18.8599 4.98682C18.8599 5.50928 18.7085 5.90723 18.4058 6.18066C18.1079 6.44922 17.688 6.62988 17.146 6.72266V6.78857C17.8296 6.88135 18.3276 7.08154 18.6401 7.38916C18.9575 7.69678 19.1162 8.12158 19.1162 8.66357C19.1162 9.41064 18.8403 9.98682 18.2886 10.3921C17.7417 10.7974 16.9409 11 15.8862 11H12.3486V2.97266H15.8716C17.8638 2.97266 18.8599 3.64404 18.8599 4.98682ZM17.9004 8.58301C17.9004 8.14844 17.7344 7.8335 17.4023 7.63818C17.0752 7.43799 16.5308 7.33789 15.769 7.33789H13.5645V9.98193H15.7983C17.1997 9.98193 17.9004 9.51562 17.9004 8.58301ZM17.6733 5.104C17.6733 4.71338 17.522 4.4375 17.2192 4.27637C16.9214 4.11035 16.4673 4.02734 15.8569 4.02734H13.5645V6.29053H15.6226C16.3745 6.29053 16.9043 6.19775 17.2119 6.01221C17.5195 5.82666 17.6733 5.52393 17.6733 5.104ZM24.2798 11.1465C23.0933 11.1465 22.1558 10.7852 21.4673 10.0625C20.7837 9.33984 20.4419 8.33643 20.4419 7.05225C20.4419 5.7583 20.7593 4.73047 21.394 3.96875C22.0337 3.20703 22.8906 2.82617 23.9648 2.82617C24.9707 2.82617 25.7666 3.1582 26.3525 3.82227C26.9385 4.48145 27.2314 5.35303 27.2314 6.43701V7.20605H21.7017C21.7261 8.14844 21.9629 8.86377 22.4121 9.35205C22.8662 9.84033 23.5034 10.0845 24.3237 10.0845C25.188 10.0845 26.0425 9.90381 26.8872 9.54248V10.6265C26.4575 10.812 26.0498 10.9438 25.6641 11.022C25.2832 11.105 24.8218 11.1465 24.2798 11.1465ZM23.9502 3.84424C23.3057 3.84424 22.7905 4.0542 22.4048 4.47412C22.0239 4.89404 21.7993 5.4751 21.731 6.21729H25.9277C25.9277 5.45068 25.7568 4.86475 25.415 4.45947C25.0732 4.04932 24.585 3.84424 23.9502 3.84424ZM34.7241 4.0127H32.1167V11H30.9009V4.0127H28.3228V2.97266H34.7241V4.0127ZM36.1377 10.2236C36.1377 9.89648 36.2109 9.6499 36.3574 9.48389C36.5088 9.31299 36.7236 9.22754 37.002 9.22754C37.2852 9.22754 37.5049 9.31299 37.6611 9.48389C37.8223 9.6499 37.9028 9.89648 37.9028 10.2236C37.9028 10.541 37.8223 10.7852 37.6611 10.9561C37.5 11.127 37.2803 11.2124 37.002 11.2124C36.7529 11.2124 36.5454 11.1367 36.3794 10.9854C36.2183 10.8291 36.1377 10.5752 36.1377 10.2236ZM36.1377 3.75635C36.1377 3.09717 36.4258 2.76758 37.002 2.76758C37.6025 2.76758 37.9028 3.09717 37.9028 3.75635C37.9028 4.07373 37.8223 4.31787 37.6611 4.48877C37.5 4.65967 37.2803 4.74512 37.002 4.74512C36.7529 4.74512 36.5454 4.66943 36.3794 4.51807C36.2183 4.36182 36.1377 4.10791 36.1377 3.75635ZM9.91699 53.7905H8.73047V51H1.28906V53.7905H0.102539V49.8721H0.930176C1.68213 48.6074 2.32422 47.0693 2.85645 45.2578C3.39355 43.4463 3.69141 41.791 3.75 40.292H8.56201V49.8721H9.91699V53.7905ZM7.31689 49.8721V41.4126H4.87793C4.79004 42.5942 4.49463 44.0151 3.9917 45.6753C3.48877 47.3306 2.90283 48.7295 2.23389 49.8721H7.31689ZM12.6855 42.9727V48.063L12.6343 49.396L12.6123 49.8135L16.9556 42.9727H18.4717V51H17.3364V46.0928L17.3584 45.126L17.395 44.1738L13.0591 51H11.543V42.9727H12.6855ZM25.9863 51L25.7446 49.8574H25.686C25.2856 50.3604 24.8853 50.7021 24.4849 50.8828C24.0894 51.0586 23.5938 51.1465 22.998 51.1465C22.2021 51.1465 21.5771 50.9414 21.123 50.5312C20.6738 50.1211 20.4492 49.5376 20.4492 48.7808C20.4492 47.1597 21.7456 46.3101 24.3384 46.2319L25.7007 46.188V45.6899C25.7007 45.0601 25.564 44.5962 25.2905 44.2983C25.022 43.9956 24.5898 43.8442 23.9941 43.8442C23.3252 43.8442 22.5684 44.0493 21.7236 44.4595L21.3501 43.5293C21.7456 43.3145 22.1777 43.146 22.6465 43.0239C23.1201 42.9019 23.5938 42.8408 24.0674 42.8408C25.0244 42.8408 25.7324 43.0532 26.1914 43.478C26.6553 43.9028 26.8872 44.584 26.8872 45.5215V51H25.9863ZM23.2397 50.1431C23.9966 50.1431 24.5898 49.9355 25.0195 49.5205C25.4541 49.1055 25.6714 48.5244 25.6714 47.7773V47.0522L24.4556 47.1035C23.4888 47.1377 22.7905 47.2891 22.3608 47.5576C21.936 47.8213 21.7236 48.2339 21.7236 48.7954C21.7236 49.2349 21.8555 49.5693 22.1191 49.7988C22.3877 50.0283 22.7612 50.1431 23.2397 50.1431ZM33.5669 49.8281L33.7939 49.147L34.1089 48.2827L36.2842 42.9873H37.8296V51H36.7529V44.3716L36.6064 44.7964L36.1816 45.917L34.1089 51H33.0908L31.0181 45.9023C30.7593 45.248 30.5811 44.7378 30.4834 44.3716V51H29.3994V42.9873H30.8862L32.9883 48.0776C33.1982 48.6147 33.3911 49.1982 33.5669 49.8281ZM43.8208 51.1465C42.6343 51.1465 41.6968 50.7852 41.0083 50.0625C40.3247 49.3398 39.9829 48.3364 39.9829 47.0522C39.9829 45.7583 40.3003 44.7305 40.9351 43.9688C41.5747 43.207 42.4316 42.8262 43.5059 42.8262C44.5117 42.8262 45.3076 43.1582 45.8936 43.8223C46.4795 44.4814 46.7725 45.353 46.7725 46.437V47.2061H41.2427C41.2671 48.1484 41.5039 48.8638 41.9531 49.3521C42.4072 49.8403 43.0444 50.0845 43.8647 50.0845C44.729 50.0845 45.5835 49.9038 46.4282 49.5425V50.6265C45.9985 50.812 45.5908 50.9438 45.2051 51.022C44.8242 51.105 44.3628 51.1465 43.8208 51.1465ZM43.4912 43.8442C42.8467 43.8442 42.3315 44.0542 41.9458 44.4741C41.5649 44.894 41.3403 45.4751 41.272 46.2173H45.4688C45.4688 45.4507 45.2979 44.8647 44.9561 44.4595C44.6143 44.0493 44.126 43.8442 43.4912 43.8442ZM54.2651 44.0127H51.6577V51H50.4419V44.0127H47.8638V42.9727H54.2651V44.0127ZM59.5898 51.1465C59.0674 51.1465 58.5889 51.0513 58.1543 50.8608C57.7246 50.6655 57.3633 50.3677 57.0703 49.9673H56.9824C57.041 50.436 57.0703 50.8804 57.0703 51.3003V54.6035H55.8545V42.9727H56.8433L57.0117 44.0713H57.0703C57.3828 43.6318 57.7466 43.3145 58.1616 43.1191C58.5767 42.9238 59.0527 42.8262 59.5898 42.8262C60.6543 42.8262 61.4746 43.1899 62.0508 43.9175C62.6318 44.645 62.9224 45.6655 62.9224 46.979C62.9224 48.2974 62.627 49.3228 62.0361 50.0552C61.4502 50.7827 60.6348 51.1465 59.5898 51.1465ZM59.4141 43.8589C58.5938 43.8589 58.0005 44.0859 57.6343 44.54C57.2681 44.9941 57.0801 45.7168 57.0703 46.708V46.979C57.0703 48.1069 57.2583 48.915 57.6343 49.4033C58.0103 49.8867 58.6133 50.1284 59.4434 50.1284C60.1367 50.1284 60.6787 49.8477 61.0693 49.2861C61.4648 48.7246 61.6626 47.9507 61.6626 46.9644C61.6626 45.9634 61.4648 45.1968 61.0693 44.6646C60.6787 44.1274 60.127 43.8589 59.4141 43.8589ZM64.8779 50.2236C64.8779 49.8965 64.9512 49.6499 65.0977 49.4839C65.249 49.313 65.4639 49.2275 65.7422 49.2275C66.0254 49.2275 66.2451 49.313 66.4014 49.4839C66.5625 49.6499 66.6431 49.8965 66.6431 50.2236C66.6431 50.541 66.5625 50.7852 66.4014 50.9561C66.2402 51.127 66.0205 51.2124 65.7422 51.2124C65.4932 51.2124 65.2856 51.1367 65.1196 50.9854C64.9585 50.8291 64.8779 50.5752 64.8779 50.2236ZM64.8779 43.7563C64.8779 43.0972 65.166 42.7676 65.7422 42.7676C66.3428 42.7676 66.6431 43.0972 66.6431 43.7563C66.6431 44.0737 66.5625 44.3179 66.4014 44.4888C66.2402 44.6597 66.0205 44.7451 65.7422 44.7451C65.4932 44.7451 65.2856 44.6694 65.1196 44.5181C64.9585 44.3618 64.8779 44.1079 64.8779 43.7563ZM1.47217 80.292H4.49707C5.91797 80.292 6.9458 80.5044 7.58057 80.9292C8.21533 81.354 8.53271 82.0254 8.53271 82.9434C8.53271 83.5781 8.35449 84.103 7.99805 84.5181C7.64648 84.9282 7.13135 85.1943 6.45264 85.3164V85.3896C8.07861 85.668 8.8916 86.5225 8.8916 87.9531C8.8916 88.9102 8.56689 89.6572 7.91748 90.1943C7.27295 90.7314 6.36963 91 5.20752 91H1.47217V80.292ZM2.71729 84.877H4.76807C5.64697 84.877 6.2793 84.7402 6.66504 84.4668C7.05078 84.1885 7.24365 83.7222 7.24365 83.0679C7.24365 82.4673 7.02881 82.0352 6.59912 81.7715C6.16943 81.5029 5.48584 81.3687 4.54834 81.3687H2.71729V84.877ZM2.71729 85.9316V89.938H4.95117C5.81543 89.938 6.46484 89.772 6.89941 89.4399C7.33887 89.103 7.55859 88.5781 7.55859 87.8652C7.55859 87.2012 7.33398 86.7129 6.88477 86.4004C6.44043 86.0879 5.76172 85.9316 4.84863 85.9316H2.71729ZM12.2314 86.2905H14.4214C15.4419 86.2905 16.1963 86.481 16.6846 86.8618C17.1777 87.2378 17.4243 87.8018 17.4243 88.5537C17.4243 89.3594 17.1631 89.9697 16.6406 90.3848C16.123 90.7949 15.3589 91 14.3481 91H11.0156V82.9727H12.2314V86.2905ZM19.9878 91H18.772V82.9727H19.9878V91ZM12.2314 87.3379V89.9819H14.2896C15.5786 89.9819 16.2231 89.5303 16.2231 88.627C16.2231 88.1777 16.0742 87.8506 15.7764 87.6455C15.4785 87.4404 14.9707 87.3379 14.2529 87.3379H12.2314ZM25.7812 91.1465C24.6191 91.1465 23.7183 90.79 23.0786 90.0771C22.4438 89.3594 22.1265 88.3462 22.1265 87.0376C22.1265 85.6948 22.4487 84.6572 23.0933 83.9248C23.7427 83.1924 24.6655 82.8262 25.8618 82.8262C26.2476 82.8262 26.6333 82.8677 27.019 82.9507C27.4048 83.0337 27.7075 83.1313 27.9272 83.2437L27.5537 84.2764C27.2852 84.1689 26.9922 84.0811 26.6748 84.0127C26.3574 83.9395 26.0767 83.9028 25.8325 83.9028C24.2017 83.9028 23.3862 84.9429 23.3862 87.0229C23.3862 88.0093 23.584 88.7661 23.9795 89.2935C24.3799 89.8208 24.9707 90.0845 25.752 90.0845C26.4209 90.0845 27.1069 89.9404 27.8101 89.6523V90.729C27.2729 91.0073 26.5967 91.1465 25.7812 91.1465ZM36.6504 86.979C36.6504 88.2876 36.3208 89.3105 35.6616 90.0479C35.0024 90.7803 34.0918 91.1465 32.9297 91.1465C32.2119 91.1465 31.5747 90.978 31.0181 90.6411C30.4614 90.3042 30.0317 89.8208 29.729 89.1909C29.4263 88.561 29.2749 87.8237 29.2749 86.979C29.2749 85.6704 29.6021 84.6523 30.2563 83.9248C30.9106 83.1924 31.8188 82.8262 32.981 82.8262C34.104 82.8262 34.9951 83.1997 35.6543 83.9468C36.3184 84.6938 36.6504 85.7046 36.6504 86.979ZM30.5347 86.979C30.5347 88.0044 30.7397 88.7856 31.1499 89.3228C31.5601 89.8599 32.1631 90.1284 32.959 90.1284C33.7549 90.1284 34.3579 89.8623 34.7681 89.3301C35.1831 88.793 35.3906 88.0093 35.3906 86.979C35.3906 85.9585 35.1831 85.1846 34.7681 84.6572C34.3579 84.125 33.75 83.8589 32.9443 83.8589C32.1484 83.8589 31.5479 84.1201 31.1426 84.6426C30.7373 85.165 30.5347 85.9438 30.5347 86.979ZM44.2017 84.0127H41.5942V91H40.3784V84.0127H37.8003V82.9727H44.2017V84.0127ZM50.7275 91L50.4858 89.8574H50.4272C50.0269 90.3604 49.6265 90.7021 49.2261 90.8828C48.8306 91.0586 48.335 91.1465 47.7393 91.1465C46.9434 91.1465 46.3184 90.9414 45.8643 90.5312C45.415 90.1211 45.1904 89.5376 45.1904 88.7808C45.1904 87.1597 46.4868 86.3101 49.0796 86.2319L50.4419 86.188V85.6899C50.4419 85.0601 50.3052 84.5962 50.0317 84.2983C49.7632 83.9956 49.3311 83.8442 48.7354 83.8442C48.0664 83.8442 47.3096 84.0493 46.4648 84.4595L46.0913 83.5293C46.4868 83.3145 46.9189 83.146 47.3877 83.0239C47.8613 82.9019 48.335 82.8408 48.8086 82.8408C49.7656 82.8408 50.4736 83.0532 50.9326 83.478C51.3965 83.9028 51.6284 84.584 51.6284 85.5215V91H50.7275ZM47.981 90.1431C48.7378 90.1431 49.3311 89.9355 49.7607 89.5205C50.1953 89.1055 50.4126 88.5244 50.4126 87.7773V87.0522L49.1968 87.1035C48.23 87.1377 47.5317 87.2891 47.1021 87.5576C46.6772 87.8213 46.4648 88.2339 46.4648 88.7954C46.4648 89.2349 46.5967 89.5693 46.8604 89.7988C47.1289 90.0283 47.5024 90.1431 47.981 90.1431ZM53.9648 90.2236C53.9648 89.8965 54.0381 89.6499 54.1846 89.4839C54.3359 89.313 54.5508 89.2275 54.8291 89.2275C55.1123 89.2275 55.332 89.313 55.4883 89.4839C55.6494 89.6499 55.73 89.8965 55.73 90.2236C55.73 90.541 55.6494 90.7852 55.4883 90.9561C55.3271 91.127 55.1074 91.2124 54.8291 91.2124C54.5801 91.2124 54.3726 91.1367 54.2065 90.9854C54.0454 90.8291 53.9648 90.5752 53.9648 90.2236ZM53.9648 83.7563C53.9648 83.0972 54.2529 82.7676 54.8291 82.7676C55.4297 82.7676 55.73 83.0972 55.73 83.7563C55.73 84.0737 55.6494 84.3179 55.4883 84.4888C55.3271 84.6597 55.1074 84.7451 54.8291 84.7451C54.5801 84.7451 54.3726 84.6694 54.2065 84.5181C54.0454 84.3618 53.9648 84.1079 53.9648 83.7563Z" fill="#444444"/>
</svg>
