<svg width="76" height="90" viewBox="0 0 76 90" fill="none" xmlns="http://www.w3.org/2000/svg">
<path d="M4.36816 20.1367C3.26074 20.1367 2.38574 19.7995 1.74316 19.125C1.10514 18.4505 0.786133 17.514 0.786133 16.3154C0.786133 15.1077 1.08236 14.1484 1.6748 13.4375C2.27181 12.7266 3.07161 12.3711 4.07422 12.3711C5.01302 12.3711 5.75586 12.681 6.30273 13.3008C6.84961 13.916 7.12305 14.7295 7.12305 15.7412V16.459H1.96191C1.9847 17.3385 2.20573 18.0062 2.625 18.4619C3.04883 18.9176 3.64355 19.1455 4.40918 19.1455C5.21582 19.1455 6.01335 18.9769 6.80176 18.6396V19.6514C6.40072 19.8245 6.02018 19.9476 5.66016 20.0205C5.30469 20.098 4.87402 20.1367 4.36816 20.1367ZM4.06055 13.3213C3.45898 13.3213 2.97819 13.5173 2.61816 13.9092C2.2627 14.3011 2.05306 14.8434 1.98926 15.5361H5.90625C5.90625 14.8206 5.74674 14.2738 5.42773 13.8955C5.10872 13.5127 4.65299 13.3213 4.06055 13.3213ZM8.43555 16.7666V15.7275H11.792V16.7666H8.43555ZM23.126 20V15.126C23.126 14.529 22.9984 14.0824 22.7432 13.7861C22.488 13.4854 22.0915 13.335 21.5537 13.335C20.8473 13.335 20.3255 13.5378 19.9883 13.9434C19.651 14.349 19.4824 14.9733 19.4824 15.8164V20H18.3477V15.126C18.3477 14.529 18.2201 14.0824 17.9648 13.7861C17.7096 13.4854 17.3109 13.335 16.7686 13.335C16.0576 13.335 15.5358 13.5492 15.2031 13.9775C14.875 14.4014 14.7109 15.0986 14.7109 16.0693V20H13.5762V12.5078H14.499L14.6836 13.5332H14.7383C14.9525 13.1686 15.2533 12.8838 15.6406 12.6787C16.0326 12.4736 16.4701 12.3711 16.9531 12.3711C18.1243 12.3711 18.89 12.7949 19.25 13.6426H19.3047C19.528 13.2507 19.8516 12.9408 20.2754 12.7129C20.6992 12.485 21.1823 12.3711 21.7246 12.3711C22.5723 12.3711 23.2057 12.5898 23.625 13.0273C24.0488 13.4603 24.2607 14.1553 24.2607 15.1123V20H23.126ZM31.2129 20L30.9873 18.9336H30.9326C30.5589 19.403 30.1852 19.722 29.8115 19.8906C29.4424 20.0547 28.9798 20.1367 28.4238 20.1367C27.681 20.1367 27.0977 19.9453 26.6738 19.5625C26.2546 19.1797 26.0449 18.6351 26.0449 17.9287C26.0449 16.4157 27.2549 15.6227 29.6748 15.5498L30.9463 15.5088V15.0439C30.9463 14.4561 30.8187 14.0231 30.5635 13.7451C30.3128 13.4626 29.9095 13.3213 29.3535 13.3213C28.7292 13.3213 28.0228 13.5127 27.2344 13.8955L26.8857 13.0273C27.2549 12.8268 27.6582 12.6696 28.0957 12.5557C28.5378 12.4417 28.9798 12.3848 29.4219 12.3848C30.3151 12.3848 30.9759 12.583 31.4043 12.9795C31.8372 13.376 32.0537 14.0117 32.0537 14.8867V20H31.2129ZM28.6494 19.2002C29.3558 19.2002 29.9095 19.0065 30.3105 18.6191C30.7161 18.2318 30.9189 17.6895 30.9189 16.9922V16.3154L29.7842 16.3633C28.8818 16.3952 28.2301 16.5365 27.8291 16.7871C27.4326 17.0332 27.2344 17.4183 27.2344 17.9424C27.2344 18.3525 27.3574 18.6647 27.6035 18.8789C27.8542 19.0931 28.2028 19.2002 28.6494 19.2002ZM35.5332 20H34.3984V12.5078H35.5332V20ZM34.3027 10.4775C34.3027 10.2178 34.3665 10.0286 34.4941 9.91016C34.6217 9.78711 34.7812 9.72559 34.9727 9.72559C35.1549 9.72559 35.3122 9.78711 35.4443 9.91016C35.5765 10.0332 35.6426 10.2223 35.6426 10.4775C35.6426 10.7327 35.5765 10.9242 35.4443 11.0518C35.3122 11.1748 35.1549 11.2363 34.9727 11.2363C34.7812 11.2363 34.6217 11.1748 34.4941 11.0518C34.3665 10.9242 34.3027 10.7327 34.3027 10.4775ZM39.0742 20H37.9395V9.36328H39.0742V20ZM41.3164 19.2754C41.3164 18.9701 41.3848 18.7399 41.5215 18.585C41.6628 18.4255 41.8633 18.3457 42.123 18.3457C42.3874 18.3457 42.5924 18.4255 42.7383 18.585C42.8887 18.7399 42.9639 18.9701 42.9639 19.2754C42.9639 19.5716 42.8887 19.7995 42.7383 19.959C42.5879 20.1185 42.3828 20.1982 42.123 20.1982C41.8906 20.1982 41.6969 20.1276 41.542 19.9863C41.3916 19.8405 41.3164 19.6035 41.3164 19.2754ZM41.3164 13.2393C41.3164 12.624 41.5853 12.3164 42.123 12.3164C42.6836 12.3164 42.9639 12.624 42.9639 13.2393C42.9639 13.5355 42.8887 13.7633 42.7383 13.9229C42.5879 14.0824 42.3828 14.1621 42.123 14.1621C41.8906 14.1621 41.6969 14.0915 41.542 13.9502C41.3916 13.8044 41.3164 13.5674 41.3164 13.2393ZM5.81055 80L5.58496 78.9336H5.53027C5.15658 79.403 4.78288 79.722 4.40918 79.8906C4.04004 80.0547 3.57747 80.1367 3.02148 80.1367C2.27865 80.1367 1.69531 79.9453 1.27148 79.5625C0.852214 79.1797 0.642578 78.6351 0.642578 77.9287C0.642578 76.4157 1.85254 75.6227 4.27246 75.5498L5.54395 75.5088V75.0439C5.54395 74.4561 5.41634 74.0231 5.16113 73.7451C4.91048 73.4626 4.50716 73.3213 3.95117 73.3213C3.32682 73.3213 2.62044 73.5127 1.83203 73.8955L1.4834 73.0273C1.85254 72.8268 2.25586 72.6696 2.69336 72.5557C3.13542 72.4417 3.57747 72.3848 4.01953 72.3848C4.91276 72.3848 5.57357 72.583 6.00195 72.9795C6.4349 73.376 6.65137 74.0117 6.65137 74.8867V80H5.81055ZM3.24707 79.2002C3.95345 79.2002 4.50716 79.0065 4.9082 78.6191C5.3138 78.2318 5.5166 77.6895 5.5166 76.9922V76.3154L4.38184 76.3633C3.47949 76.3952 2.8278 76.5365 2.42676 76.7871C2.03027 77.0332 1.83203 77.4183 1.83203 77.9424C1.83203 78.3525 1.95508 78.6647 2.20117 78.8789C2.45182 79.0931 2.80046 79.2002 3.24707 79.2002ZM15.5039 82.5908H14.4033V80H9.16699V82.5908H8.07324V79.0225H8.66113C9.27181 78.193 9.75033 77.2201 10.0967 76.1035C10.443 74.987 10.623 73.7884 10.6367 72.5078H14.4307V79.0225H15.5039V82.5908ZM13.3369 79.0225V73.4033H11.6553C11.596 74.415 11.4001 75.4404 11.0674 76.4795C10.7393 77.514 10.3291 78.3617 9.83691 79.0225H13.3369ZM20.4941 80.1367C20.0065 80.1367 19.5599 80.0479 19.1543 79.8701C18.7533 79.6878 18.416 79.4098 18.1426 79.0361H18.0605C18.1152 79.4736 18.1426 79.8883 18.1426 80.2803V83.3633H17.0078V72.5078H17.9307L18.0879 73.5332H18.1426C18.4342 73.123 18.7738 72.8268 19.1611 72.6445C19.5485 72.4622 19.9928 72.3711 20.4941 72.3711C21.4876 72.3711 22.2533 72.7106 22.791 73.3896C23.3333 74.0687 23.6045 75.0212 23.6045 76.2471C23.6045 77.4775 23.3288 78.4346 22.7773 79.1182C22.2305 79.7972 21.4694 80.1367 20.4941 80.1367ZM20.3301 73.335C19.5645 73.335 19.0107 73.5469 18.6689 73.9707C18.3271 74.3945 18.1517 75.069 18.1426 75.9941V76.2471C18.1426 77.2998 18.318 78.054 18.6689 78.5098C19.0199 78.9609 19.5827 79.1865 20.3574 79.1865C21.0046 79.1865 21.5104 78.9245 21.875 78.4004C22.2441 77.8763 22.4287 77.154 22.4287 76.2334C22.4287 75.2992 22.2441 74.5837 21.875 74.0869C21.5104 73.5856 20.9954 73.335 20.3301 73.335ZM28.7588 80.1367C27.6514 80.1367 26.7764 79.7995 26.1338 79.125C25.4958 78.4505 25.1768 77.514 25.1768 76.3154C25.1768 75.1077 25.473 74.1484 26.0654 73.4375C26.6624 72.7266 27.4622 72.3711 28.4648 72.3711C29.4036 72.3711 30.1465 72.681 30.6934 73.3008C31.2402 73.916 31.5137 74.7295 31.5137 75.7412V76.459H26.3525C26.3753 77.3385 26.5964 78.0062 27.0156 78.4619C27.4395 78.9176 28.0342 79.1455 28.7998 79.1455C29.6064 79.1455 30.404 78.9769 31.1924 78.6396V79.6514C30.7913 79.8245 30.4108 79.9476 30.0508 80.0205C29.6953 80.098 29.2646 80.1367 28.7588 80.1367ZM28.4512 73.3213C27.8496 73.3213 27.3688 73.5173 27.0088 73.9092C26.6533 74.3011 26.4437 74.8434 26.3799 75.5361H30.2969C30.2969 74.8206 30.1374 74.2738 29.8184 73.8955C29.4993 73.5127 29.0436 73.3213 28.4512 73.3213ZM36.4492 80.1367C35.3646 80.1367 34.5238 79.804 33.9268 79.1387C33.3343 78.4688 33.0381 77.5231 33.0381 76.3018C33.0381 75.0485 33.3389 74.0801 33.9404 73.3965C34.5465 72.7129 35.4079 72.3711 36.5244 72.3711C36.8844 72.3711 37.2445 72.4098 37.6045 72.4873C37.9645 72.5648 38.2471 72.6559 38.4521 72.7607L38.1035 73.7246C37.8529 73.6243 37.5794 73.5423 37.2832 73.4785C36.987 73.4102 36.7249 73.376 36.4971 73.376C34.9749 73.376 34.2139 74.3467 34.2139 76.2881C34.2139 77.2087 34.3984 77.915 34.7676 78.4072C35.1413 78.8994 35.6927 79.1455 36.4219 79.1455C37.0462 79.1455 37.6865 79.0111 38.3428 78.7422V79.7471C37.8415 80.0068 37.2103 80.1367 36.4492 80.1367ZM39.9629 79.2754C39.9629 78.9701 40.0312 78.7399 40.168 78.585C40.3092 78.4255 40.5098 78.3457 40.7695 78.3457C41.0339 78.3457 41.2389 78.4255 41.3848 78.585C41.5352 78.7399 41.6104 78.9701 41.6104 79.2754C41.6104 79.5716 41.5352 79.7995 41.3848 79.959C41.2344 80.1185 41.0293 80.1982 40.7695 80.1982C40.5371 80.1982 40.3434 80.1276 40.1885 79.9863C40.0381 79.8405 39.9629 79.6035 39.9629 79.2754ZM39.9629 73.2393C39.9629 72.624 40.2318 72.3164 40.7695 72.3164C41.3301 72.3164 41.6104 72.624 41.6104 73.2393C41.6104 73.5355 41.5352 73.7633 41.3848 73.9229C41.2344 74.0824 41.0293 74.1621 40.7695 74.1621C40.5371 74.1621 40.3434 74.0915 40.1885 73.9502C40.0381 73.8044 39.9629 73.5674 39.9629 73.2393Z" fill="#444444"/>
</svg>
