<svg width="240" height="87" viewBox="0 0 240 87" fill="none" xmlns="http://www.w3.org/2000/svg">
<path d="M30.1011 20L25.4605 4.87842H25.3418C25.5088 7.95459 25.5923 10.0068 25.5923 11.0352V20H21.9404V0.725589H27.5039L32.0654 15.4648H32.1445L36.9829 0.725589H42.5464V20H38.7363V10.877C38.7363 10.4463 38.7407 9.94971 38.7495 9.38721C38.7671 8.82471 38.8286 7.33057 38.9341 4.90479H38.8154L33.8452 20H30.1011ZM50.9839 5.26074V11.0879C50.9839 11.7031 50.8828 13.2061 50.6807 15.5967L57.4834 5.26074H62.3218V20H58.4326V14.1201C58.4326 13.0742 58.5205 11.5977 58.6963 9.69043L51.9199 20H47.0947V5.26074H50.9839ZM79.7505 20H75.7295V8.27979H72.0249C71.7437 11.5757 71.4009 14.0366 70.9966 15.6626C70.5923 17.2798 70.0518 18.4531 69.375 19.1826C68.707 19.9033 67.8281 20.2637 66.7383 20.2637C65.8066 20.2637 65.042 20.123 64.4443 19.8418V16.625C64.875 16.8008 65.3057 16.8887 65.7363 16.8887C66.2373 16.8887 66.6548 16.5283 66.9888 15.8076C67.3316 15.0869 67.6348 13.8872 67.8984 12.2085C68.1709 10.521 68.4038 8.20508 68.5972 5.26074H79.7505V20ZM88.0034 10.9561H89.9414C92.1914 10.9561 93.8569 11.3164 94.938 12.0371C96.019 12.7578 96.5596 13.8477 96.5596 15.3066C96.5596 16.8623 96.019 18.0356 94.938 18.8267C93.8569 19.6089 92.2398 20 90.0864 20H83.9824V5.26074H88.0034V10.9561ZM92.5386 15.3594C92.5386 14.7881 92.3101 14.375 91.853 14.1201C91.396 13.8652 90.7149 13.7378 89.8096 13.7378H88.0034V17.2183H89.8623C91.6465 17.2183 92.5386 16.5986 92.5386 15.3594ZM102.716 20H98.6953V5.26074H102.716V20ZM113.052 7.84473C112.2 7.84473 111.532 8.11719 111.048 8.66211C110.565 9.19824 110.288 9.96289 110.218 10.9561H115.86C115.843 9.96289 115.583 9.19824 115.083 8.66211C114.582 8.11719 113.905 7.84473 113.052 7.84473ZM113.619 20.2637C111.246 20.2637 109.392 19.6089 108.056 18.2993C106.72 16.9897 106.052 15.1353 106.052 12.7358C106.052 10.2661 106.667 8.35889 107.897 7.01416C109.137 5.66065 110.846 4.98389 113.026 4.98389C115.109 4.98389 116.73 5.57715 117.891 6.76367C119.051 7.9502 119.631 9.58936 119.631 11.6812V13.6323H110.125C110.169 14.7749 110.508 15.667 111.141 16.3086C111.773 16.9502 112.661 17.271 113.804 17.271C114.691 17.271 115.531 17.1787 116.322 16.9941C117.113 16.8096 117.939 16.5151 118.8 16.1108V19.2222C118.097 19.5737 117.346 19.833 116.546 20C115.746 20.1758 114.771 20.2637 113.619 20.2637ZM151.865 20H129.914V5.26074H133.935V16.981H138.879V5.26074H142.9V16.981H147.844V5.26074H151.865V20ZM168.292 5.26074V8.27979H163.466V20H159.445V8.27979H154.607V5.26074H168.292ZM168.938 5.26074H173.341L176.123 13.5532C176.36 14.2739 176.522 15.1265 176.61 16.1108H176.689C176.786 15.2056 176.975 14.353 177.256 13.5532L179.985 5.26074H184.296L178.061 21.8853C177.489 23.4233 176.672 24.5747 175.608 25.3394C174.554 26.104 173.319 26.4863 171.904 26.4863C171.209 26.4863 170.528 26.4116 169.86 26.2622V23.0718C170.344 23.186 170.871 23.2432 171.442 23.2432C172.154 23.2432 172.774 23.0234 173.301 22.584C173.837 22.1533 174.255 21.4985 174.554 20.6196L174.791 19.8945L168.938 5.26074ZM196.083 5.26074H200.512L194.672 12.3271L201.026 20H196.465L190.44 12.5249V20H186.419V5.26074H190.44V12.4194L196.083 5.26074ZM207.025 5.26074V11.0879C207.025 11.7031 206.924 13.2061 206.722 15.5967L213.524 5.26074H218.363V20H214.474V14.1201C214.474 13.0742 214.562 11.5977 214.737 9.69043L207.961 20H203.136V5.26074H207.025ZM78.0894 50.2637C76.3579 50.2637 75 49.6353 74.0156 48.3784H73.8047C73.9453 49.6089 74.0156 50.3208 74.0156 50.5142V56.4863H69.9946V35.2607H73.2642L73.8311 37.1724H74.0156C74.9561 35.7134 76.3491 34.9839 78.1948 34.9839C79.9351 34.9839 81.2974 35.6563 82.2817 37.001C83.2661 38.3457 83.7583 40.2134 83.7583 42.604C83.7583 44.1772 83.5254 45.5439 83.0596 46.7041C82.6025 47.8643 81.9478 48.7476 81.0952 49.354C80.2427 49.9604 79.2407 50.2637 78.0894 50.2637ZM76.9028 38.2007C75.9097 38.2007 75.1846 38.5083 74.7275 39.1235C74.2705 39.73 74.0332 40.7363 74.0156 42.1426V42.5776C74.0156 44.1597 74.2485 45.2935 74.7144 45.979C75.189 46.6646 75.936 47.0073 76.9556 47.0073C78.7573 47.0073 79.6582 45.522 79.6582 42.5513C79.6582 41.1011 79.4341 40.0156 78.9858 39.2949C78.5464 38.5654 77.8521 38.2007 76.9028 38.2007ZM84.9712 35.2607H89.3745L92.1563 43.5532C92.3936 44.2739 92.5562 45.1265 92.644 46.1108H92.7232C92.8198 45.2056 93.0088 44.353 93.29 43.5532L96.019 35.2607H100.33L94.0942 51.8853C93.523 53.4233 92.7056 54.5747 91.6421 55.3394C90.5874 56.104 89.3525 56.4863 87.9375 56.4863C87.2432 56.4863 86.562 56.4116 85.8941 56.2622V53.0718C86.3774 53.186 86.9048 53.2432 87.4761 53.2432C88.188 53.2432 88.8076 53.0234 89.335 52.584C89.8711 52.1533 90.2886 51.4985 90.5874 50.6196L90.8247 49.8945L84.9712 35.2607ZM105.986 35.2607V40.6528C105.986 41.936 106.579 42.5776 107.766 42.5776C108.539 42.5776 109.255 42.4897 109.915 42.314C110.583 42.1382 111.255 41.9097 111.932 41.6284V35.2607H115.953V50H111.932V44.1465C111 44.6387 110.134 44.9858 109.334 45.188C108.535 45.3901 107.761 45.4912 107.014 45.4912C105.406 45.4912 104.162 45.0825 103.283 44.2651C102.404 43.439 101.965 42.2656 101.965 40.7451V35.2607H105.986ZM124.192 35.2607V40.9297H129.809V35.2607H133.83V50H129.809V43.9224H124.192V50H120.171V35.2607H124.192ZM141.252 42.604C141.252 44.063 141.489 45.166 141.964 45.9131C142.447 46.6602 143.229 47.0337 144.311 47.0337C145.383 47.0337 146.152 46.6646 146.618 45.9263C147.092 45.1792 147.33 44.0718 147.33 42.604C147.33 41.145 147.092 40.0508 146.618 39.3213C146.143 38.5918 145.365 38.2271 144.284 38.2271C143.212 38.2271 142.438 38.5918 141.964 39.3213C141.489 40.042 141.252 41.1362 141.252 42.604ZM151.443 42.604C151.443 45.0034 150.81 46.8799 149.544 48.2334C148.279 49.5869 146.517 50.2637 144.258 50.2637C142.843 50.2637 141.595 49.9561 140.514 49.3408C139.433 48.7168 138.602 47.8247 138.022 46.6646C137.442 45.5044 137.152 44.1509 137.152 42.604C137.152 40.1958 137.78 38.3237 139.037 36.9878C140.294 35.6519 142.061 34.9839 144.337 34.9839C145.752 34.9839 147 35.2915 148.081 35.9067C149.162 36.522 149.993 37.4053 150.573 38.5566C151.153 39.708 151.443 41.0571 151.443 42.604ZM158.654 35.2607V41.0879C158.654 41.7031 158.553 43.2061 158.351 45.5967L165.154 35.2607H169.992V50H166.103V44.1201C166.103 43.0742 166.191 41.5977 166.367 39.6904L159.59 50H154.765V35.2607H158.654ZM168.806 28.9194C168.639 30.563 168.019 31.7627 166.947 32.5186C165.875 33.2656 164.328 33.6392 162.306 33.6392C160.223 33.6392 158.681 33.2788 157.679 32.5581C156.686 31.8374 156.127 30.6245 156.004 28.9194H159.604C159.665 29.8247 159.889 30.4619 160.276 30.8311C160.671 31.1914 161.375 31.3716 162.385 31.3716C163.273 31.3716 163.932 31.1738 164.363 30.7783C164.802 30.374 165.07 29.7544 165.167 28.9194H168.806ZM8.20314 80.2637C6.47169 80.2637 5.11378 79.6353 4.12941 78.3784H3.91847C4.0591 79.6089 4.12941 80.3208 4.12941 80.5142V86.4863H0.108413V65.2607H3.37794L3.94484 67.1724H4.12941C5.06984 65.7134 6.4629 64.9839 8.30861 64.9839C10.0488 64.9839 11.4111 65.6563 12.3955 67.001C13.3799 68.3457 13.8721 70.2134 13.8721 72.604C13.8721 74.1772 13.6392 75.5439 13.1734 76.7041C12.7163 77.8643 12.0615 78.7476 11.209 79.354C10.3565 79.9604 9.35451 80.2637 8.20314 80.2637ZM7.01662 68.2007C6.02345 68.2007 5.29835 68.5083 4.84132 69.1235C4.38429 69.73 4.14699 70.7363 4.12941 72.1426V72.5776C4.12941 74.1597 4.36232 75.2935 4.82814 75.979C5.30275 76.6646 6.04982 77.0073 7.06935 77.0073C8.87111 77.0073 9.77199 75.522 9.77199 72.5513C9.77199 71.1011 9.54787 70.0156 9.09962 69.2949C8.66017 68.5654 7.96583 68.2007 7.01662 68.2007ZM26.5547 80L25.7769 77.9961H25.6714C24.9946 78.8486 24.2959 79.4419 23.5752 79.7759C22.8633 80.1011 21.9317 80.2637 20.7803 80.2637C19.3652 80.2637 18.249 79.8594 17.4317 79.0508C16.6231 78.2422 16.2188 77.0908 16.2188 75.5967C16.2188 74.0322 16.7637 72.8809 17.8535 72.1426C18.9522 71.3955 20.6045 70.9824 22.8106 70.9033L25.3682 70.8242V70.1782C25.3682 68.6841 24.6035 67.937 23.0742 67.937C21.8965 67.937 20.5122 68.293 18.9214 69.0049L17.5899 66.2891C19.2861 65.4014 21.167 64.9575 23.2324 64.9575C25.21 64.9575 26.7261 65.3882 27.7808 66.2495C28.8355 67.1108 29.3628 68.4204 29.3628 70.1782V80H26.5547ZM25.3682 73.1709L23.8125 73.2236C22.6436 73.2588 21.7734 73.4697 21.2022 73.8564C20.6309 74.2432 20.3452 74.832 20.3452 75.623C20.3452 76.7568 20.9956 77.3237 22.2964 77.3237C23.228 77.3237 23.9707 77.0557 24.5244 76.5195C25.0869 75.9834 25.3682 75.2715 25.3682 74.3838V73.1709ZM32.6192 71.167C32.6192 67.7832 33.2608 65.2168 34.544 63.4678C35.8359 61.71 37.8486 60.5981 40.582 60.1323C41.9092 59.9038 43.8911 59.6138 46.5278 59.2622L46.9893 62.769C45.8467 62.9009 43.8208 63.1821 40.9116 63.6128C39.8042 63.7886 38.978 64.0522 38.4331 64.4038C37.8882 64.7554 37.4795 65.2563 37.207 65.9067C36.9434 66.5571 36.7808 67.4229 36.7192 68.5039H36.917C37.3828 67.7832 37.9981 67.2295 38.7627 66.8428C39.5274 66.4561 40.3491 66.2627 41.228 66.2627C43.0474 66.2627 44.4624 66.8208 45.4732 67.937C46.4839 69.0444 46.9893 70.6353 46.9893 72.7095C46.9893 75.1001 46.3477 76.959 45.0645 78.2861C43.79 79.6045 42.0278 80.2637 39.7778 80.2637C37.5278 80.2637 35.77 79.4595 34.5044 77.8511C33.2476 76.2339 32.6192 74.0059 32.6192 71.167ZM40.0151 77.0073C41.9224 77.0073 42.876 75.6934 42.876 73.0654C42.876 70.5078 42.0147 69.229 40.292 69.229C39.8174 69.229 39.3428 69.3389 38.8682 69.5586C38.4024 69.7783 37.9717 70.0684 37.5762 70.4287C37.1895 70.7803 36.9038 71.1362 36.7192 71.4966C36.7192 73.2808 37.0049 74.6475 37.5762 75.5967C38.1475 76.5371 38.9605 77.0073 40.0151 77.0073ZM53.5151 72.604C53.5151 74.063 53.7524 75.166 54.2271 75.9131C54.7105 76.6602 55.4927 77.0337 56.5737 77.0337C57.646 77.0337 58.415 76.6646 58.8809 75.9263C59.3555 75.1792 59.5928 74.0718 59.5928 72.604C59.5928 71.145 59.3555 70.0508 58.8809 69.3213C58.4063 68.5918 57.6284 68.2271 56.5474 68.2271C55.4751 68.2271 54.7017 68.5918 54.2271 69.3213C53.7524 70.042 53.5151 71.1362 53.5151 72.604ZM63.7061 72.604C63.7061 75.0034 63.0732 76.8799 61.8076 78.2334C60.542 79.5869 58.7798 80.2637 56.521 80.2637C55.106 80.2637 53.8579 79.9561 52.7769 79.3408C51.6958 78.7168 50.8652 77.8247 50.2852 76.6646C49.7051 75.5044 49.415 74.1509 49.415 72.604C49.415 70.1958 50.0435 68.3237 51.3003 66.9878C52.5571 65.6519 54.3237 64.9839 56.6001 64.9839C58.0151 64.9839 59.2632 65.2915 60.3442 65.9067C61.4253 66.522 62.2559 67.4053 62.8359 68.5566C63.416 69.708 63.7061 71.0571 63.7061 72.604ZM79.2232 65.2607V68.2798H74.398V80H70.377V68.2798H65.5386V65.2607H79.2232ZM85.9995 70.9561H87.9375C90.1875 70.9561 91.853 71.3164 92.9341 72.0371C94.0151 72.7578 94.5557 73.8477 94.5557 75.3066C94.5557 76.8623 94.0151 78.0356 92.9341 78.8267C91.853 79.6089 90.2358 80 88.0825 80H81.9785V65.2607H85.9995V70.9561ZM90.5347 75.3594C90.5347 74.7881 90.3062 74.375 89.8491 74.1201C89.3921 73.8652 88.7109 73.7378 87.8057 73.7378H85.9995V77.2183H87.8584C89.6426 77.2183 90.5347 76.5986 90.5347 75.3594ZM100.712 80H96.6914V65.2607H100.712V80ZM121.187 77.0601V68.2798H118.167C117.948 69.9146 117.645 71.4658 117.258 72.9336C116.88 74.4014 116.353 75.7769 115.676 77.0601H121.187ZM127.37 85.2866H123.757V80H113.843V85.2866H110.231V77.0601H111.47C112.314 75.7505 113.021 74.0981 113.593 72.103C114.164 70.1079 114.564 67.8272 114.792 65.2607H125.208V77.0601H127.37V85.2866ZM143.084 80H139.063V68.2798H135.359C135.078 71.5757 134.735 74.0366 134.331 75.6626C133.926 77.2798 133.386 78.4531 132.709 79.1826C132.041 79.9033 131.162 80.2637 130.072 80.2637C129.141 80.2637 128.376 80.123 127.778 79.8418V76.625C128.209 76.8008 128.64 76.8887 129.07 76.8887C129.571 76.8887 129.989 76.5283 130.323 75.8076C130.666 75.0869 130.969 73.8872 131.232 72.2085C131.505 70.521 131.738 68.2051 131.931 65.2607H143.084V80ZM149.558 80H145.207L149.175 74.1729C148.226 73.7773 147.505 73.2061 147.013 72.459C146.53 71.7119 146.288 70.833 146.288 69.8223C146.288 68.3984 146.82 67.2822 147.883 66.4736C148.956 65.665 150.415 65.2607 152.26 65.2607H159.116V80H155.095V74.5156H152.88L149.558 80ZM150.23 69.8486C150.23 70.4639 150.472 70.9473 150.955 71.2988C151.438 71.6416 152.071 71.813 152.854 71.813H155.095V68.0952H152.339C151.68 68.0952 151.162 68.2578 150.784 68.583C150.415 68.8994 150.23 69.3213 150.23 69.8486ZM179.563 77.0601V68.2798H176.544C176.325 69.9146 176.021 71.4658 175.635 72.9336C175.257 74.4014 174.729 75.7769 174.053 77.0601H179.563ZM185.747 85.2866H182.134V80H172.22V85.2866H168.608V77.0601H169.847C170.691 75.7505 171.398 74.0981 171.97 72.103C172.541 70.1079 172.941 67.8272 173.169 65.2607H183.584V77.0601H185.747V85.2866ZM191.468 72.604C191.468 74.063 191.706 75.166 192.18 75.9131C192.664 76.6602 193.446 77.0337 194.527 77.0337C195.599 77.0337 196.368 76.6646 196.834 75.9263C197.309 75.1792 197.546 74.0718 197.546 72.604C197.546 71.145 197.309 70.0508 196.834 69.3213C196.359 68.5918 195.582 68.2271 194.5 68.2271C193.428 68.2271 192.655 68.5918 192.18 69.3213C191.706 70.042 191.468 71.1362 191.468 72.604ZM201.659 72.604C201.659 75.0034 201.026 76.8799 199.761 78.2334C198.495 79.5869 196.733 80.2637 194.474 80.2637C193.059 80.2637 191.811 79.9561 190.73 79.3408C189.649 78.7168 188.818 77.8247 188.238 76.6646C187.658 75.5044 187.368 74.1509 187.368 72.604C187.368 70.1958 187.997 68.3237 189.253 66.9878C190.51 65.6519 192.277 64.9839 194.553 64.9839C195.968 64.9839 197.216 65.2915 198.297 65.9067C199.378 66.522 200.209 67.4053 200.789 68.5566C201.369 69.708 201.659 71.0571 201.659 72.604ZM223.557 80H219.8V68.3853L219.589 69.2026C219.114 71.0571 218.688 72.459 218.31 73.4082L215.7 80H212.839L210.189 73.3555C209.811 72.3887 209.407 71.0308 208.976 69.2817L208.726 68.3853V80H204.981V65.2607H210.519L213.05 71.5493C213.313 72.2261 213.555 73.0039 213.775 73.8828C214.003 74.7617 214.157 75.5132 214.236 76.1372C214.526 74.8188 214.75 73.874 214.909 73.3027C215.076 72.7227 215.256 72.1909 215.449 71.7075C215.643 71.2241 216.517 69.0752 218.073 65.2607H223.557V80ZM237.149 80L236.372 77.9961H236.266C235.589 78.8486 234.891 79.4419 234.17 79.7759C233.458 80.1011 232.526 80.2637 231.375 80.2637C229.96 80.2637 228.844 79.8594 228.026 79.0508C227.218 78.2422 226.813 77.0908 226.813 75.5967C226.813 74.0322 227.358 72.8809 228.448 72.1426C229.547 71.3955 231.199 70.9824 233.405 70.9033L235.963 70.8242V70.1782C235.963 68.6841 235.198 67.937 233.669 67.937C232.491 67.937 231.107 68.293 229.516 69.0049L228.185 66.2891C229.881 65.4014 231.762 64.9575 233.827 64.9575C235.805 64.9575 237.321 65.3882 238.375 66.2495C239.43 67.1108 239.958 68.4204 239.958 70.1782V80H237.149ZM235.963 73.1709L234.407 73.2236C233.238 73.2588 232.368 73.4697 231.797 73.8564C231.226 74.2432 230.94 74.832 230.94 75.623C230.94 76.7568 231.59 77.3237 232.891 77.3237C233.823 77.3237 234.565 77.0557 235.119 76.5195C235.682 75.9834 235.963 75.2715 235.963 74.3838V73.1709Z" fill="black"/>
</svg>
