<svg width="116" height="93" viewBox="0 0 116 93" fill="none" xmlns="http://www.w3.org/2000/svg">
<path d="M6.70166 5.0127H4.09424V12H2.87842V5.0127H0.300293V3.97266H6.70166V5.0127ZM9.43359 3.97266V9.06299L9.38232 10.396L9.36035 10.8135L13.7036 3.97266H15.2197V12H14.0845V7.09277L14.1064 6.12598L14.1431 5.17383L9.80713 12H8.29102V3.97266H9.43359ZM26.3965 7.979C26.3965 9.19482 26.0498 10.1641 25.3564 10.8867C24.668 11.6045 23.7036 12.0146 22.4634 12.1172V15.6035H21.2622V12.1172C20.0513 12.0244 19.0942 11.6094 18.3911 10.8721C17.688 10.1348 17.3364 9.17041 17.3364 7.979C17.3364 6.76318 17.6855 5.79639 18.3838 5.07861C19.0869 4.36084 20.061 3.95312 21.3062 3.85547V0.603516H22.4634V3.85547C23.689 3.96777 24.6509 4.39014 25.3491 5.12256C26.0474 5.85498 26.3965 6.80713 26.3965 7.979ZM18.6108 7.979C18.6108 8.9165 18.8257 9.65137 19.2554 10.1836C19.6851 10.7158 20.3687 11.0259 21.3062 11.1138V4.87354C20.4028 4.95654 19.7266 5.25195 19.2773 5.75977C18.833 6.2627 18.6108 7.00244 18.6108 7.979ZM25.1367 7.979C25.1367 6.10889 24.2456 5.07861 22.4634 4.88818V11.1138C23.3911 11.021 24.0674 10.7085 24.4922 10.1763C24.9219 9.64404 25.1367 8.91162 25.1367 7.979ZM37.1191 7.979C37.1191 9.19482 36.7725 10.1641 36.0791 10.8867C35.3906 11.6045 34.4263 12.0146 33.186 12.1172V15.6035H31.9849V12.1172C30.7739 12.0244 29.8169 11.6094 29.1138 10.8721C28.4106 10.1348 28.0591 9.17041 28.0591 7.979C28.0591 6.76318 28.4082 5.79639 29.1064 5.07861C29.8096 4.36084 30.7837 3.95312 32.0288 3.85547V0.603516H33.186V3.85547C34.4116 3.96777 35.3735 4.39014 36.0718 5.12256C36.77 5.85498 37.1191 6.80713 37.1191 7.979ZM29.3335 7.979C29.3335 8.9165 29.5483 9.65137 29.978 10.1836C30.4077 10.7158 31.0913 11.0259 32.0288 11.1138V4.87354C31.1255 4.95654 30.4492 5.25195 30 5.75977C29.5557 6.2627 29.3335 7.00244 29.3335 7.979ZM35.8594 7.979C35.8594 6.10889 34.9683 5.07861 33.186 4.88818V11.1138C34.1138 11.021 34.79 10.7085 35.2148 10.1763C35.6445 9.64404 35.8594 8.91162 35.8594 7.979ZM44.1797 12L43.938 10.8574H43.8794C43.479 11.3604 43.0786 11.7021 42.6782 11.8828C42.2827 12.0586 41.7871 12.1465 41.1914 12.1465C40.3955 12.1465 39.7705 11.9414 39.3164 11.5312C38.8672 11.1211 38.6426 10.5376 38.6426 9.78076C38.6426 8.15967 39.939 7.31006 42.5317 7.23193L43.894 7.18799V6.68994C43.894 6.06006 43.7573 5.59619 43.4839 5.29834C43.2153 4.99561 42.7832 4.84424 42.1875 4.84424C41.5186 4.84424 40.7617 5.04932 39.917 5.45947L39.5435 4.5293C39.939 4.31445 40.3711 4.146 40.8398 4.02393C41.3135 3.90186 41.7871 3.84082 42.2607 3.84082C43.2178 3.84082 43.9258 4.05322 44.3848 4.47803C44.8486 4.90283 45.0806 5.58398 45.0806 6.52148V12H44.1797ZM41.4331 11.1431C42.1899 11.1431 42.7832 10.9355 43.2129 10.5205C43.6475 10.1055 43.8647 9.52441 43.8647 8.77734V8.05225L42.6489 8.10352C41.6821 8.1377 40.9839 8.28906 40.5542 8.55762C40.1294 8.82129 39.917 9.23389 39.917 9.79541C39.917 10.2349 40.0488 10.5693 40.3125 10.7988C40.5811 11.0283 40.9546 11.1431 41.4331 11.1431ZM48.8086 3.97266V7.33447H53.3057V3.97266H54.5215V12H53.3057V8.38184H48.8086V12H47.5928V3.97266H48.8086ZM58.2422 3.97266V9.06299L58.1909 10.396L58.1689 10.8135L62.5122 3.97266H64.0283V12H62.8931V7.09277L62.915 6.12598L62.9517 5.17383L58.6157 12H57.0996V3.97266H58.2422ZM70.6714 1.29199L66.6797 12H65.4639L69.4556 1.29199H70.6714ZM75.3223 12.1465C74.1602 12.1465 73.2593 11.79 72.6196 11.0771C71.9849 10.3594 71.6675 9.34619 71.6675 8.0376C71.6675 6.69482 71.9897 5.65723 72.6343 4.9248C73.2837 4.19238 74.2065 3.82617 75.4028 3.82617C75.7886 3.82617 76.1743 3.86768 76.5601 3.95068C76.9458 4.03369 77.2485 4.13135 77.4683 4.24365L77.0947 5.27637C76.8262 5.16895 76.5332 5.08105 76.2158 5.0127C75.8984 4.93945 75.6177 4.90283 75.3735 4.90283C73.7427 4.90283 72.9272 5.94287 72.9272 8.02295C72.9272 9.00928 73.125 9.76611 73.5205 10.2935C73.9209 10.8208 74.5117 11.0845 75.293 11.0845C75.9619 11.0845 76.6479 10.9404 77.3511 10.6523V11.729C76.814 12.0073 76.1377 12.1465 75.3223 12.1465ZM82.6538 12.1465C81.4673 12.1465 80.5298 11.7852 79.8413 11.0625C79.1577 10.3398 78.8159 9.33643 78.8159 8.05225C78.8159 6.7583 79.1333 5.73047 79.7681 4.96875C80.4077 4.20703 81.2646 3.82617 82.3389 3.82617C83.3447 3.82617 84.1406 4.1582 84.7266 4.82227C85.3125 5.48145 85.6055 6.35303 85.6055 7.43701V8.20605H80.0757C80.1001 9.14844 80.3369 9.86377 80.7861 10.3521C81.2402 10.8403 81.8774 11.0845 82.6978 11.0845C83.562 11.0845 84.4165 10.9038 85.2612 10.5425V11.6265C84.8315 11.812 84.4238 11.9438 84.0381 12.022C83.6572 12.105 83.1958 12.1465 82.6538 12.1465ZM82.3242 4.84424C81.6797 4.84424 81.1646 5.0542 80.7788 5.47412C80.3979 5.89404 80.1733 6.4751 80.105 7.21729H84.3018C84.3018 6.45068 84.1309 5.86475 83.7891 5.45947C83.4473 5.04932 82.959 4.84424 82.3242 4.84424ZM91.4209 12.1465C90.8984 12.1465 90.4199 12.0513 89.9854 11.8608C89.5557 11.6655 89.1943 11.3677 88.9014 10.9673H88.8135C88.8721 11.436 88.9014 11.8804 88.9014 12.3003V15.6035H87.6855V3.97266H88.6743L88.8428 5.07129H88.9014C89.2139 4.63184 89.5776 4.31445 89.9927 4.11914C90.4077 3.92383 90.8838 3.82617 91.4209 3.82617C92.4854 3.82617 93.3057 4.18994 93.8818 4.91748C94.4629 5.64502 94.7534 6.66553 94.7534 7.979C94.7534 9.29736 94.458 10.3228 93.8672 11.0552C93.2812 11.7827 92.4658 12.1465 91.4209 12.1465ZM91.2451 4.85889C90.4248 4.85889 89.8315 5.08594 89.4653 5.54004C89.0991 5.99414 88.9111 6.7168 88.9014 7.70801V7.979C88.9014 9.10693 89.0894 9.91504 89.4653 10.4033C89.8413 10.8867 90.4443 11.1284 91.2744 11.1284C91.9678 11.1284 92.5098 10.8477 92.9004 10.2861C93.2959 9.72461 93.4937 8.95068 93.4937 7.96436C93.4937 6.96338 93.2959 6.19678 92.9004 5.66455C92.5098 5.12744 91.958 4.85889 91.2451 4.85889ZM98.1006 7.29053H100.291C101.311 7.29053 102.065 7.48096 102.554 7.86182C103.047 8.23779 103.293 8.80176 103.293 9.55371C103.293 10.3594 103.032 10.9697 102.51 11.3848C101.992 11.7949 101.228 12 100.217 12H96.8848V3.97266H98.1006V7.29053ZM105.857 12H104.641V3.97266H105.857V12ZM98.1006 8.33789V10.9819H100.159C101.448 10.9819 102.092 10.5303 102.092 9.62695C102.092 9.17773 101.943 8.85059 101.646 8.64551C101.348 8.44043 100.84 8.33789 100.122 8.33789H98.1006ZM109.585 3.97266V9.06299L109.534 10.396L109.512 10.8135L113.855 3.97266H115.371V12H114.236V7.09277L114.258 6.12598L114.294 5.17383L109.958 12H108.442V3.97266H109.585ZM111.877 2.91064C110.974 2.91064 110.315 2.7373 109.9 2.39062C109.485 2.03906 109.253 1.46289 109.204 0.662109H110.347C110.391 1.16992 110.522 1.52393 110.742 1.72412C110.967 1.92432 111.355 2.02441 111.907 2.02441C112.41 2.02441 112.781 1.91699 113.02 1.70215C113.264 1.4873 113.413 1.14062 113.467 0.662109H114.617C114.558 1.43359 114.312 2.00244 113.877 2.36865C113.442 2.72998 112.776 2.91064 111.877 2.91064ZM7.771 52H0.732422V50.9526L3.55225 48.1182C4.41162 47.249 4.97803 46.6289 5.25146 46.2578C5.5249 45.8867 5.72998 45.5254 5.8667 45.1738C6.00342 44.8223 6.07178 44.4438 6.07178 44.0386C6.07178 43.4673 5.89844 43.0156 5.55176 42.6836C5.20508 42.3467 4.72412 42.1782 4.10889 42.1782C3.66455 42.1782 3.24219 42.2515 2.8418 42.3979C2.44629 42.5444 2.00439 42.8105 1.51611 43.1963L0.871582 42.3687C1.85791 41.5483 2.93213 41.1382 4.09424 41.1382C5.1001 41.1382 5.88867 41.397 6.45996 41.9146C7.03125 42.4272 7.31689 43.1182 7.31689 43.9873C7.31689 44.666 7.12646 45.3374 6.74561 46.0015C6.36475 46.6655 5.65186 47.5054 4.60693 48.521L2.26318 50.8135V50.8721H7.771V52ZM12.6636 45.4595C13.7915 45.4595 14.6777 45.7402 15.3223 46.3018C15.9717 46.8584 16.2964 47.6226 16.2964 48.5942C16.2964 49.7026 15.9424 50.5718 15.2344 51.2017C14.5312 51.8315 13.5596 52.1465 12.3193 52.1465C11.1133 52.1465 10.1929 51.9536 9.55811 51.5679V50.396C9.8999 50.6157 10.3247 50.7891 10.8325 50.916C11.3403 51.0381 11.8408 51.0991 12.334 51.0991C13.1934 51.0991 13.8599 50.8965 14.3335 50.4912C14.812 50.0859 15.0513 49.5 15.0513 48.7334C15.0513 47.2393 14.1357 46.4922 12.3047 46.4922C11.8408 46.4922 11.2207 46.563 10.4443 46.7046L9.81445 46.3018L10.2173 41.292H15.542V42.4126H11.2573L10.9863 45.6279C11.5479 45.5156 12.1069 45.4595 12.6636 45.4595ZM25.5615 52.1465C24.3994 52.1465 23.4985 51.79 22.8589 51.0771C22.2241 50.3594 21.9067 49.3462 21.9067 48.0376C21.9067 46.6948 22.229 45.6572 22.8735 44.9248C23.5229 44.1924 24.4458 43.8262 25.6421 43.8262C26.0278 43.8262 26.4136 43.8677 26.7993 43.9507C27.1851 44.0337 27.4878 44.1313 27.7075 44.2437L27.334 45.2764C27.0654 45.1689 26.7725 45.0811 26.4551 45.0127C26.1377 44.9395 25.8569 44.9028 25.6128 44.9028C23.9819 44.9028 23.1665 45.9429 23.1665 48.0229C23.1665 49.0093 23.3643 49.7661 23.7598 50.2935C24.1602 50.8208 24.751 51.0845 25.5322 51.0845C26.2012 51.0845 26.8872 50.9404 27.5903 50.6523V51.729C27.0532 52.0073 26.377 52.1465 25.5615 52.1465ZM33.6694 50.8281L33.8965 50.147L34.2114 49.2827L36.3867 43.9873H37.9321V52H36.8555V45.3716L36.709 45.7964L36.2842 46.917L34.2114 52H33.1934L31.1206 46.9023C30.8618 46.248 30.6836 45.7378 30.5859 45.3716V52H29.502V43.9873H30.9888L33.0908 49.0776C33.3008 49.6147 33.4937 50.1982 33.6694 50.8281ZM5.23682 92H4.05029V84.3682C4.05029 83.7334 4.06982 83.1328 4.10889 82.5664C4.00635 82.6689 3.8916 82.7764 3.76465 82.8887C3.6377 83.001 3.05664 83.4771 2.02148 84.3169L1.37695 83.4819L4.21143 81.292H5.23682V92ZM12.6636 85.4595C13.7915 85.4595 14.6777 85.7402 15.3223 86.3018C15.9717 86.8584 16.2964 87.6226 16.2964 88.5942C16.2964 89.7026 15.9424 90.5718 15.2344 91.2017C14.5312 91.8315 13.5596 92.1465 12.3193 92.1465C11.1133 92.1465 10.1929 91.9536 9.55811 91.5679V90.396C9.8999 90.6157 10.3247 90.7891 10.8325 90.916C11.3403 91.0381 11.8408 91.0991 12.334 91.0991C13.1934 91.0991 13.8599 90.8965 14.3335 90.4912C14.812 90.0859 15.0513 89.5 15.0513 88.7334C15.0513 87.2393 14.1357 86.4922 12.3047 86.4922C11.8408 86.4922 11.2207 86.563 10.4443 86.7046L9.81445 86.3018L10.2173 81.292H15.542V82.4126H11.2573L10.9863 85.6279C11.5479 85.5156 12.1069 85.4595 12.6636 85.4595ZM25.5615 92.1465C24.3994 92.1465 23.4985 91.79 22.8589 91.0771C22.2241 90.3594 21.9067 89.3462 21.9067 88.0376C21.9067 86.6948 22.229 85.6572 22.8735 84.9248C23.5229 84.1924 24.4458 83.8262 25.6421 83.8262C26.0278 83.8262 26.4136 83.8677 26.7993 83.9507C27.1851 84.0337 27.4878 84.1313 27.7075 84.2437L27.334 85.2764C27.0654 85.1689 26.7725 85.0811 26.4551 85.0127C26.1377 84.9395 25.8569 84.9028 25.6128 84.9028C23.9819 84.9028 23.1665 85.9429 23.1665 88.0229C23.1665 89.0093 23.3643 89.7661 23.7598 90.2935C24.1602 90.8208 24.751 91.0845 25.5322 91.0845C26.2012 91.0845 26.8872 90.9404 27.5903 90.6523V91.729C27.0532 92.0073 26.377 92.1465 25.5615 92.1465ZM33.6694 90.8281L33.8965 90.147L34.2114 89.2827L36.3867 83.9873H37.9321V92H36.8555V85.3716L36.709 85.7964L36.2842 86.917L34.2114 92H33.1934L31.1206 86.9023C30.8618 86.248 30.6836 85.7378 30.5859 85.3716V92H29.502V83.9873H30.9888L33.0908 89.0776C33.3008 89.6147 33.4937 90.1982 33.6694 90.8281Z" fill="#444444"/>
</svg>
